<mxfile host="app.diagrams.net" modified="2022-09-19T06:50:51.953Z" agent="5.0 (Windows NT 10.0; Win64; x64) AppleWebKit/537.36 (KHTML, like Gecko) Chrome/105.0.0.0 Safari/537.36 Edg/105.0.1343.33" etag="I4e6nirUGI1zkdBHcMsI" version="20.3.0" type="github">
  <diagram id="of3IcOWWMsL-4Bt5zzn3" name="第 1 页">
    <mxGraphModel dx="2588" dy="965" grid="1" gridSize="10" guides="1" tooltips="1" connect="1" arrows="1" fold="1" page="1" pageScale="1" pageWidth="827" pageHeight="1169" math="0" shadow="0">
      <root>
        <mxCell id="0" />
        <mxCell id="1" parent="0" />
        <mxCell id="jrFRfUBAV2CwwS7NImxO-48" value="" style="rounded=0;whiteSpace=wrap;html=1;fontSize=16;" vertex="1" parent="1">
          <mxGeometry x="-100" y="860" width="470" height="460" as="geometry" />
        </mxCell>
        <mxCell id="U3ueGLIZ5XUcP0PDT6xN-354" value="" style="rounded=0;whiteSpace=wrap;html=1;fontSize=16;fontColor=#FF3333;" parent="1" vertex="1">
          <mxGeometry x="-135" y="4150" width="765" height="260" as="geometry" />
        </mxCell>
        <mxCell id="U3ueGLIZ5XUcP0PDT6xN-352" value="" style="rounded=0;whiteSpace=wrap;html=1;fontSize=16;fontColor=#000000;" parent="1" vertex="1">
          <mxGeometry x="-130" y="3861" width="760" height="209" as="geometry" />
        </mxCell>
        <mxCell id="U3ueGLIZ5XUcP0PDT6xN-286" value="" style="rounded=0;whiteSpace=wrap;html=1;fontSize=16;fontColor=#FF3333;" parent="1" vertex="1">
          <mxGeometry x="-10" y="3180" width="440" height="480" as="geometry" />
        </mxCell>
        <mxCell id="U3ueGLIZ5XUcP0PDT6xN-284" value="" style="rounded=0;whiteSpace=wrap;html=1;fontSize=16;fontColor=#FF3333;" parent="1" vertex="1">
          <mxGeometry x="-413" y="3180" width="313" height="480" as="geometry" />
        </mxCell>
        <mxCell id="U3ueGLIZ5XUcP0PDT6xN-47" value="" style="rounded=0;whiteSpace=wrap;html=1;" parent="1" vertex="1">
          <mxGeometry x="466" y="860" width="334" height="460" as="geometry" />
        </mxCell>
        <mxCell id="U3ueGLIZ5XUcP0PDT6xN-1" value="深圳&lt;span style=&quot;white-space: pre;&quot;&gt; &lt;/span&gt;" style="rounded=1;whiteSpace=wrap;html=1;" parent="1" vertex="1">
          <mxGeometry x="200" y="120" width="100" height="40" as="geometry" />
        </mxCell>
        <mxCell id="U3ueGLIZ5XUcP0PDT6xN-2" value="无锡" style="rounded=1;whiteSpace=wrap;html=1;" parent="1" vertex="1">
          <mxGeometry x="354" y="120" width="96" height="40" as="geometry" />
        </mxCell>
        <mxCell id="U3ueGLIZ5XUcP0PDT6xN-3" value="深圳" style="shape=cylinder3;whiteSpace=wrap;html=1;boundedLbl=1;backgroundOutline=1;size=15;" parent="1" vertex="1">
          <mxGeometry x="160" y="380" width="60" height="80" as="geometry" />
        </mxCell>
        <mxCell id="U3ueGLIZ5XUcP0PDT6xN-4" value="无锡" style="shape=cylinder3;whiteSpace=wrap;html=1;boundedLbl=1;backgroundOutline=1;size=15;" parent="1" vertex="1">
          <mxGeometry x="250" y="380" width="60" height="80" as="geometry" />
        </mxCell>
        <mxCell id="U3ueGLIZ5XUcP0PDT6xN-5" value="北京" style="shape=cylinder3;whiteSpace=wrap;html=1;boundedLbl=1;backgroundOutline=1;size=15;" parent="1" vertex="1">
          <mxGeometry x="340" y="380" width="60" height="80" as="geometry" />
        </mxCell>
        <mxCell id="U3ueGLIZ5XUcP0PDT6xN-6" value="深圳" style="rounded=1;whiteSpace=wrap;html=1;" parent="1" vertex="1">
          <mxGeometry x="220" y="270" width="100" height="50" as="geometry" />
        </mxCell>
        <mxCell id="U3ueGLIZ5XUcP0PDT6xN-7" value="" style="rounded=1;whiteSpace=wrap;html=1;" parent="1" vertex="1">
          <mxGeometry x="400" y="265" width="120" height="55" as="geometry" />
        </mxCell>
        <mxCell id="U3ueGLIZ5XUcP0PDT6xN-8" value="push_yychan_d" style="rounded=1;whiteSpace=wrap;html=1;" parent="1" vertex="1">
          <mxGeometry x="220" y="620" width="120" height="60" as="geometry" />
        </mxCell>
        <mxCell id="U3ueGLIZ5XUcP0PDT6xN-9" value="" style="rounded=1;whiteSpace=wrap;html=1;" parent="1" vertex="1">
          <mxGeometry x="500" y="510" width="120" height="60" as="geometry" />
        </mxCell>
        <mxCell id="U3ueGLIZ5XUcP0PDT6xN-30" value="1" style="edgeStyle=orthogonalEdgeStyle;rounded=0;orthogonalLoop=1;jettySize=auto;html=1;entryX=0.5;entryY=0;entryDx=0;entryDy=0;fontSize=16;" parent="1" source="U3ueGLIZ5XUcP0PDT6xN-10" target="U3ueGLIZ5XUcP0PDT6xN-15" edge="1">
          <mxGeometry relative="1" as="geometry" />
        </mxCell>
        <mxCell id="U3ueGLIZ5XUcP0PDT6xN-10" value="&lt;font style=&quot;font-size: 18px;&quot;&gt;&lt;b&gt;push_ap&lt;/b&gt;&lt;/font&gt;" style="rounded=1;whiteSpace=wrap;html=1;" parent="1" vertex="1">
          <mxGeometry x="50" y="910" width="120" height="60" as="geometry" />
        </mxCell>
        <mxCell id="U3ueGLIZ5XUcP0PDT6xN-11" value="transform" style="rounded=1;whiteSpace=wrap;html=1;" parent="1" vertex="1">
          <mxGeometry x="670" y="650" width="120" height="60" as="geometry" />
        </mxCell>
        <mxCell id="U3ueGLIZ5XUcP0PDT6xN-31" value="2" style="edgeStyle=orthogonalEdgeStyle;rounded=0;orthogonalLoop=1;jettySize=auto;html=1;fontSize=16;" parent="1" source="U3ueGLIZ5XUcP0PDT6xN-15" target="U3ueGLIZ5XUcP0PDT6xN-18" edge="1">
          <mxGeometry relative="1" as="geometry" />
        </mxCell>
        <mxCell id="U3ueGLIZ5XUcP0PDT6xN-15" value="&lt;font style=&quot;font-size: 18px;&quot;&gt;&lt;b&gt;push_login&lt;/b&gt;&lt;/font&gt;" style="rounded=1;whiteSpace=wrap;html=1;" parent="1" vertex="1">
          <mxGeometry x="50" y="1030" width="120" height="60" as="geometry" />
        </mxCell>
        <mxCell id="U3ueGLIZ5XUcP0PDT6xN-32" value="3" style="edgeStyle=orthogonalEdgeStyle;rounded=0;orthogonalLoop=1;jettySize=auto;html=1;entryX=0.5;entryY=0;entryDx=0;entryDy=0;fontSize=16;fontColor=#FF3333;" parent="1" source="U3ueGLIZ5XUcP0PDT6xN-18" target="U3ueGLIZ5XUcP0PDT6xN-21" edge="1">
          <mxGeometry relative="1" as="geometry" />
        </mxCell>
        <mxCell id="U3ueGLIZ5XUcP0PDT6xN-18" value="&lt;span style=&quot;text-align: left;&quot;&gt;&lt;b&gt;&lt;font style=&quot;font-size: 18px;&quot;&gt;im_pushbrcmgr&lt;/font&gt;&lt;/b&gt;&lt;/span&gt;" style="rounded=1;whiteSpace=wrap;html=1;" parent="1" vertex="1">
          <mxGeometry x="50" y="1140" width="120" height="60" as="geometry" />
        </mxCell>
        <mxCell id="U3ueGLIZ5XUcP0PDT6xN-35" value="&lt;font style=&quot;font-size: 16px;&quot;&gt;4.notify&lt;br&gt;&lt;/font&gt;" style="edgeStyle=orthogonalEdgeStyle;rounded=0;orthogonalLoop=1;jettySize=auto;html=1;exitX=0;exitY=0.5;exitDx=0;exitDy=0;fontSize=16;fontColor=#FF3333;" parent="1" source="U3ueGLIZ5XUcP0PDT6xN-21" edge="1">
          <mxGeometry relative="1" as="geometry">
            <mxPoint x="50" y="950" as="targetPoint" />
            <Array as="points">
              <mxPoint x="30" y="1280" />
              <mxPoint x="30" y="950" />
            </Array>
          </mxGeometry>
        </mxCell>
        <mxCell id="U3ueGLIZ5XUcP0PDT6xN-21" value="&lt;span style=&quot;text-align: left;&quot;&gt;&lt;font style=&quot;font-size: 18px;&quot;&gt;&lt;b&gt;im_pushreader&lt;/b&gt;&lt;/font&gt;&lt;/span&gt;" style="rounded=1;whiteSpace=wrap;html=1;" parent="1" vertex="1">
          <mxGeometry x="50" y="1250" width="120" height="60" as="geometry" />
        </mxCell>
        <mxCell id="U3ueGLIZ5XUcP0PDT6xN-40" value="1" style="edgeStyle=orthogonalEdgeStyle;rounded=0;orthogonalLoop=1;jettySize=auto;html=1;entryX=0.5;entryY=0;entryDx=0;entryDy=0;fontSize=16;" parent="1" target="U3ueGLIZ5XUcP0PDT6xN-25" edge="1">
          <mxGeometry relative="1" as="geometry">
            <mxPoint x="590" y="970" as="sourcePoint" />
            <Array as="points">
              <mxPoint x="554" y="970" />
            </Array>
          </mxGeometry>
        </mxCell>
        <mxCell id="U3ueGLIZ5XUcP0PDT6xN-41" value="2" style="edgeStyle=orthogonalEdgeStyle;rounded=0;orthogonalLoop=1;jettySize=auto;html=1;entryX=0.5;entryY=0;entryDx=0;entryDy=0;fontSize=16;" parent="1" source="U3ueGLIZ5XUcP0PDT6xN-25" target="U3ueGLIZ5XUcP0PDT6xN-39" edge="1">
          <mxGeometry relative="1" as="geometry" />
        </mxCell>
        <mxCell id="U3ueGLIZ5XUcP0PDT6xN-25" value="&lt;font style=&quot;font-size: 18px;&quot;&gt;&lt;b&gt;push_login&lt;/b&gt;&lt;/font&gt;" style="rounded=1;whiteSpace=wrap;html=1;" parent="1" vertex="1">
          <mxGeometry x="494" y="1030" width="120" height="60" as="geometry" />
        </mxCell>
        <mxCell id="U3ueGLIZ5XUcP0PDT6xN-34" value="1.2" style="edgeStyle=orthogonalEdgeStyle;rounded=0;orthogonalLoop=1;jettySize=auto;html=1;fontSize=16;" parent="1" source="U3ueGLIZ5XUcP0PDT6xN-26" target="U3ueGLIZ5XUcP0PDT6xN-15" edge="1">
          <mxGeometry relative="1" as="geometry" />
        </mxCell>
        <mxCell id="U3ueGLIZ5XUcP0PDT6xN-26" value="&lt;b&gt;&lt;font style=&quot;font-size: 18px;&quot;&gt;transfrom&lt;/font&gt;&lt;/b&gt;" style="rounded=1;whiteSpace=wrap;html=1;" parent="1" vertex="1">
          <mxGeometry x="230" y="1030" width="120" height="60" as="geometry" />
        </mxCell>
        <mxCell id="U3ueGLIZ5XUcP0PDT6xN-33" value="1.1" style="edgeStyle=orthogonalEdgeStyle;rounded=0;orthogonalLoop=1;jettySize=auto;html=1;exitX=0.5;exitY=1;exitDx=0;exitDy=0;entryX=0.5;entryY=0;entryDx=0;entryDy=0;fontSize=16;" parent="1" source="U3ueGLIZ5XUcP0PDT6xN-27" target="U3ueGLIZ5XUcP0PDT6xN-26" edge="1">
          <mxGeometry relative="1" as="geometry" />
        </mxCell>
        <mxCell id="U3ueGLIZ5XUcP0PDT6xN-27" value="&lt;font style=&quot;font-size: 18px;&quot;&gt;&lt;b&gt;grpcproxy&lt;/b&gt;&lt;/font&gt;" style="rounded=1;whiteSpace=wrap;html=1;" parent="1" vertex="1">
          <mxGeometry x="230" y="910" width="120" height="60" as="geometry" />
        </mxCell>
        <mxCell id="U3ueGLIZ5XUcP0PDT6xN-42" value="&lt;font style=&quot;font-size: 16px;&quot;&gt;1.1&lt;/font&gt;" style="edgeStyle=orthogonalEdgeStyle;rounded=0;orthogonalLoop=1;jettySize=auto;html=1;exitX=0.25;exitY=1;exitDx=0;exitDy=0;" parent="1" source="U3ueGLIZ5XUcP0PDT6xN-53" edge="1">
          <mxGeometry relative="1" as="geometry">
            <mxPoint x="700" y="980" as="sourcePoint" />
            <mxPoint x="700" y="1030" as="targetPoint" />
            <Array as="points">
              <mxPoint x="700" y="970" />
            </Array>
          </mxGeometry>
        </mxCell>
        <mxCell id="U3ueGLIZ5XUcP0PDT6xN-43" value="1.2" style="edgeStyle=orthogonalEdgeStyle;rounded=0;orthogonalLoop=1;jettySize=auto;html=1;fontSize=16;" parent="1" source="U3ueGLIZ5XUcP0PDT6xN-38" target="U3ueGLIZ5XUcP0PDT6xN-25" edge="1">
          <mxGeometry relative="1" as="geometry" />
        </mxCell>
        <mxCell id="U3ueGLIZ5XUcP0PDT6xN-38" value="&lt;b&gt;&lt;font style=&quot;font-size: 18px;&quot;&gt;transfrom&lt;/font&gt;&lt;/b&gt;" style="rounded=1;whiteSpace=wrap;html=1;" parent="1" vertex="1">
          <mxGeometry x="671" y="1030" width="120" height="60" as="geometry" />
        </mxCell>
        <mxCell id="U3ueGLIZ5XUcP0PDT6xN-44" value="&lt;font style=&quot;font-size: 16px;&quot;&gt;3.res&lt;/font&gt;" style="edgeStyle=orthogonalEdgeStyle;rounded=0;orthogonalLoop=1;jettySize=auto;html=1;entryX=0.41;entryY=1.033;entryDx=0;entryDy=0;entryPerimeter=0;fontSize=16;" parent="1" source="U3ueGLIZ5XUcP0PDT6xN-39" target="U3ueGLIZ5XUcP0PDT6xN-38" edge="1">
          <mxGeometry relative="1" as="geometry" />
        </mxCell>
        <mxCell id="U3ueGLIZ5XUcP0PDT6xN-45" value="&lt;span style=&quot;font-size: 16px;&quot;&gt;3.res&lt;/span&gt;" style="edgeStyle=orthogonalEdgeStyle;rounded=0;orthogonalLoop=1;jettySize=auto;html=1;entryX=0;entryY=0.75;entryDx=0;entryDy=0;fontSize=16;" parent="1" source="U3ueGLIZ5XUcP0PDT6xN-39" edge="1">
          <mxGeometry relative="1" as="geometry">
            <mxPoint x="494" y="955" as="targetPoint" />
            <Array as="points">
              <mxPoint x="474" y="1190" />
              <mxPoint x="474" y="955" />
            </Array>
          </mxGeometry>
        </mxCell>
        <mxCell id="U3ueGLIZ5XUcP0PDT6xN-39" value="&lt;font style=&quot;font-size: 18px;&quot;&gt;&lt;b&gt;push_yychan&lt;/b&gt;&lt;/font&gt;" style="rounded=1;whiteSpace=wrap;html=1;" parent="1" vertex="1">
          <mxGeometry x="494" y="1160" width="120" height="60" as="geometry" />
        </mxCell>
        <mxCell id="U3ueGLIZ5XUcP0PDT6xN-48" value="&lt;h1&gt;现逻辑&lt;/h1&gt;" style="text;html=1;strokeColor=none;fillColor=none;spacing=5;spacingTop=-20;whiteSpace=wrap;overflow=hidden;rounded=0;" parent="1" vertex="1">
          <mxGeometry x="-100" y="860" width="180" height="40" as="geometry" />
        </mxCell>
        <mxCell id="U3ueGLIZ5XUcP0PDT6xN-49" value="&lt;font style=&quot;font-size: 24px;&quot;&gt;&lt;b&gt;新逻辑&lt;/b&gt;&lt;/font&gt;" style="text;html=1;strokeColor=none;fillColor=none;align=center;verticalAlign=middle;whiteSpace=wrap;rounded=0;" parent="1" vertex="1">
          <mxGeometry x="466" y="860" width="90" height="30" as="geometry" />
        </mxCell>
        <mxCell id="U3ueGLIZ5XUcP0PDT6xN-51" value="" style="shape=flexArrow;endArrow=classic;html=1;rounded=0;fontSize=24;entryX=0;entryY=0.5;entryDx=0;entryDy=0;" parent="1" target="U3ueGLIZ5XUcP0PDT6xN-47" edge="1" source="jrFRfUBAV2CwwS7NImxO-48">
          <mxGeometry width="50" height="50" relative="1" as="geometry">
            <mxPoint x="360" y="1100" as="sourcePoint" />
            <mxPoint x="410" y="1050" as="targetPoint" />
          </mxGeometry>
        </mxCell>
        <mxCell id="U3ueGLIZ5XUcP0PDT6xN-52" value="&lt;font style=&quot;font-size: 18px;&quot;&gt;&lt;b&gt;push_ap&lt;/b&gt;&lt;/font&gt;" style="rounded=1;whiteSpace=wrap;html=1;" parent="1" vertex="1">
          <mxGeometry x="494" y="910" width="120" height="60" as="geometry" />
        </mxCell>
        <mxCell id="U3ueGLIZ5XUcP0PDT6xN-53" value="&lt;b&gt;&lt;font style=&quot;font-size: 18px;&quot;&gt;grpcproxy&lt;/font&gt;&lt;/b&gt;" style="rounded=1;whiteSpace=wrap;html=1;" parent="1" vertex="1">
          <mxGeometry x="664" y="910" width="120" height="60" as="geometry" />
        </mxCell>
        <mxCell id="U3ueGLIZ5XUcP0PDT6xN-94" value="16.fetch" style="edgeStyle=orthogonalEdgeStyle;rounded=0;orthogonalLoop=1;jettySize=auto;html=1;exitX=0.25;exitY=1;exitDx=0;exitDy=0;entryX=0.207;entryY=0;entryDx=0;entryDy=0;entryPerimeter=0;fontSize=16;" parent="1" source="U3ueGLIZ5XUcP0PDT6xN-55" target="U3ueGLIZ5XUcP0PDT6xN-57" edge="1">
          <mxGeometry relative="1" as="geometry" />
        </mxCell>
        <mxCell id="U3ueGLIZ5XUcP0PDT6xN-55" value="&lt;font style=&quot;font-size: 18px;&quot;&gt;push_ap&lt;/font&gt;" style="rounded=1;whiteSpace=wrap;html=1;fontSize=16;" parent="1" vertex="1">
          <mxGeometry x="310" y="1560" width="140" height="60" as="geometry" />
        </mxCell>
        <mxCell id="U3ueGLIZ5XUcP0PDT6xN-93" value="15.notify" style="edgeStyle=orthogonalEdgeStyle;rounded=0;orthogonalLoop=1;jettySize=auto;html=1;exitX=1;exitY=0.5;exitDx=0;exitDy=0;entryX=0;entryY=0.5;entryDx=0;entryDy=0;fontSize=16;" parent="1" source="U3ueGLIZ5XUcP0PDT6xN-56" target="U3ueGLIZ5XUcP0PDT6xN-55" edge="1">
          <mxGeometry relative="1" as="geometry" />
        </mxCell>
        <mxCell id="U3ueGLIZ5XUcP0PDT6xN-56" value="&lt;font style=&quot;font-size: 18px;&quot;&gt;push_yychan&lt;/font&gt;" style="rounded=1;whiteSpace=wrap;html=1;fontSize=16;" parent="1" vertex="1">
          <mxGeometry x="100" y="1690" width="170" height="130" as="geometry" />
        </mxCell>
        <mxCell id="U3ueGLIZ5XUcP0PDT6xN-57" value="&lt;font style=&quot;font-size: 18px;&quot;&gt;im_pushdispatch&lt;/font&gt;" style="rounded=1;whiteSpace=wrap;html=1;fontSize=16;" parent="1" vertex="1">
          <mxGeometry x="315" y="1690" width="145" height="60" as="geometry" />
        </mxCell>
        <mxCell id="U3ueGLIZ5XUcP0PDT6xN-117" value="6.写body回调" style="edgeStyle=orthogonalEdgeStyle;rounded=0;orthogonalLoop=1;jettySize=auto;html=1;fontSize=16;exitX=0;exitY=0.5;exitDx=0;exitDy=0;" parent="1" edge="1">
          <mxGeometry relative="1" as="geometry">
            <mxPoint x="-39" y="1940" as="targetPoint" />
            <mxPoint x="80" y="1940" as="sourcePoint" />
          </mxGeometry>
        </mxCell>
        <mxCell id="U3ueGLIZ5XUcP0PDT6xN-61" value="&lt;font style=&quot;font-size: 18px;&quot;&gt;push_dao_execv2&lt;/font&gt;" style="rounded=1;whiteSpace=wrap;html=1;fontSize=16;" parent="1" vertex="1">
          <mxGeometry x="80" y="1890" width="145" height="150" as="geometry" />
        </mxCell>
        <mxCell id="U3ueGLIZ5XUcP0PDT6xN-98" style="edgeStyle=orthogonalEdgeStyle;rounded=0;orthogonalLoop=1;jettySize=auto;html=1;exitX=1;exitY=0.5;exitDx=0;exitDy=0;entryX=1;entryY=0.75;entryDx=0;entryDy=0;fontSize=16;" parent="1" source="U3ueGLIZ5XUcP0PDT6xN-70" target="U3ueGLIZ5XUcP0PDT6xN-55" edge="1">
          <mxGeometry relative="1" as="geometry">
            <Array as="points">
              <mxPoint x="520" y="1860" />
              <mxPoint x="520" y="1605" />
            </Array>
          </mxGeometry>
        </mxCell>
        <mxCell id="U3ueGLIZ5XUcP0PDT6xN-99" value="19.res" style="edgeLabel;html=1;align=center;verticalAlign=middle;resizable=0;points=[];fontSize=16;" parent="U3ueGLIZ5XUcP0PDT6xN-98" vertex="1" connectable="0">
          <mxGeometry x="-0.5288" y="2" relative="1" as="geometry">
            <mxPoint as="offset" />
          </mxGeometry>
        </mxCell>
        <mxCell id="U3ueGLIZ5XUcP0PDT6xN-166" value="22.发布msglist" style="edgeStyle=orthogonalEdgeStyle;rounded=0;orthogonalLoop=1;jettySize=auto;html=1;fontSize=16;entryX=1.014;entryY=0.464;entryDx=0;entryDy=0;entryPerimeter=0;" parent="1" source="U3ueGLIZ5XUcP0PDT6xN-70" target="U3ueGLIZ5XUcP0PDT6xN-110" edge="1">
          <mxGeometry relative="1" as="geometry">
            <mxPoint x="-30" y="1860" as="targetPoint" />
            <Array as="points" />
          </mxGeometry>
        </mxCell>
        <mxCell id="U3ueGLIZ5XUcP0PDT6xN-70" value="&lt;font style=&quot;font-size: 18px;&quot;&gt;im_pushreader&lt;/font&gt;" style="rounded=1;whiteSpace=wrap;html=1;fontSize=16;" parent="1" vertex="1">
          <mxGeometry x="320" y="1830" width="160" height="60" as="geometry" />
        </mxCell>
        <mxCell id="U3ueGLIZ5XUcP0PDT6xN-73" value="pika" style="shape=cylinder3;whiteSpace=wrap;html=1;boundedLbl=1;backgroundOutline=1;size=15;fontSize=16;" parent="1" vertex="1">
          <mxGeometry x="250" y="2090" width="90" height="80" as="geometry" />
        </mxCell>
        <mxCell id="U3ueGLIZ5XUcP0PDT6xN-111" value="1.发布任务" style="edgeStyle=orthogonalEdgeStyle;rounded=0;orthogonalLoop=1;jettySize=auto;html=1;exitX=0;exitY=0.5;exitDx=0;exitDy=0;entryX=1;entryY=0.017;entryDx=0;entryDy=0;fontSize=16;entryPerimeter=0;" parent="1" source="U3ueGLIZ5XUcP0PDT6xN-81" target="U3ueGLIZ5XUcP0PDT6xN-110" edge="1">
          <mxGeometry relative="1" as="geometry" />
        </mxCell>
        <mxCell id="U3ueGLIZ5XUcP0PDT6xN-81" value="&lt;font style=&quot;font-size: 18px;&quot;&gt;push_server&lt;/font&gt;" style="rounded=1;whiteSpace=wrap;html=1;fontSize=16;" parent="1" vertex="1">
          <mxGeometry x="100" y="1570" width="130" height="60" as="geometry" />
        </mxCell>
        <mxCell id="U3ueGLIZ5XUcP0PDT6xN-87" value="3.发布body" style="endArrow=classic;html=1;rounded=0;fontSize=16;exitX=0;exitY=0.5;exitDx=0;exitDy=0;" parent="1" edge="1">
          <mxGeometry width="50" height="50" relative="1" as="geometry">
            <mxPoint x="100" y="1727" as="sourcePoint" />
            <mxPoint x="-40" y="1727" as="targetPoint" />
          </mxGeometry>
        </mxCell>
        <mxCell id="U3ueGLIZ5XUcP0PDT6xN-95" value="17.fetch" style="endArrow=classic;html=1;rounded=0;fontSize=16;exitX=0.162;exitY=1.014;exitDx=0;exitDy=0;exitPerimeter=0;" parent="1" edge="1">
          <mxGeometry width="50" height="50" relative="1" as="geometry">
            <mxPoint x="344.4899999999998" y="1750.8400000000001" as="sourcePoint" />
            <mxPoint x="346" y="1830" as="targetPoint" />
          </mxGeometry>
        </mxCell>
        <mxCell id="U3ueGLIZ5XUcP0PDT6xN-101" value="20.ack" style="endArrow=classic;html=1;rounded=0;fontSize=16;entryX=0.698;entryY=-0.025;entryDx=0;entryDy=0;entryPerimeter=0;exitX=0.75;exitY=1;exitDx=0;exitDy=0;" parent="1" source="U3ueGLIZ5XUcP0PDT6xN-55" target="U3ueGLIZ5XUcP0PDT6xN-57" edge="1">
          <mxGeometry width="50" height="50" relative="1" as="geometry">
            <mxPoint x="410" y="1670" as="sourcePoint" />
            <mxPoint x="460" y="1620" as="targetPoint" />
          </mxGeometry>
        </mxCell>
        <mxCell id="U3ueGLIZ5XUcP0PDT6xN-102" value="21.ack" style="endArrow=classic;html=1;rounded=0;fontSize=16;exitX=0.698;exitY=1.053;exitDx=0;exitDy=0;exitPerimeter=0;" parent="1" source="U3ueGLIZ5XUcP0PDT6xN-57" edge="1">
          <mxGeometry width="50" height="50" relative="1" as="geometry">
            <mxPoint x="410" y="1800" as="sourcePoint" />
            <mxPoint x="416" y="1830" as="targetPoint" />
            <Array as="points">
              <mxPoint x="416" y="1790" />
            </Array>
          </mxGeometry>
        </mxCell>
        <mxCell id="U3ueGLIZ5XUcP0PDT6xN-106" value="18.就近读msglist和body" style="endArrow=classic;html=1;rounded=0;fontSize=16;exitX=0.25;exitY=1;exitDx=0;exitDy=0;" parent="1" source="U3ueGLIZ5XUcP0PDT6xN-70" target="U3ueGLIZ5XUcP0PDT6xN-73" edge="1">
          <mxGeometry y="-20" width="50" height="50" relative="1" as="geometry">
            <mxPoint x="340" y="1940" as="sourcePoint" />
            <mxPoint x="360" y="2030" as="targetPoint" />
            <mxPoint as="offset" />
          </mxGeometry>
        </mxCell>
        <mxCell id="U3ueGLIZ5XUcP0PDT6xN-110" value="kafka" style="rounded=1;whiteSpace=wrap;html=1;fontSize=16;" parent="1" vertex="1">
          <mxGeometry x="-110" y="1590" width="70" height="580" as="geometry" />
        </mxCell>
        <mxCell id="U3ueGLIZ5XUcP0PDT6xN-114" value="2.消费任务" style="endArrow=classic;html=1;rounded=0;fontSize=16;entryX=0;entryY=0.5;entryDx=0;entryDy=0;exitX=1.047;exitY=0.207;exitDx=0;exitDy=0;exitPerimeter=0;" parent="1" edge="1">
          <mxGeometry width="50" height="50" relative="1" as="geometry">
            <mxPoint x="-36.710000000000036" y="1701.4099999999999" as="sourcePoint" />
            <mxPoint x="100" y="1701" as="targetPoint" />
          </mxGeometry>
        </mxCell>
        <mxCell id="U3ueGLIZ5XUcP0PDT6xN-115" value="4.读body" style="endArrow=classic;html=1;rounded=0;fontSize=16;entryX=-0.01;entryY=0.169;entryDx=0;entryDy=0;entryPerimeter=0;" parent="1" target="U3ueGLIZ5XUcP0PDT6xN-61" edge="1">
          <mxGeometry width="50" height="50" relative="1" as="geometry">
            <mxPoint x="-40" y="1913" as="sourcePoint" />
            <mxPoint x="80" y="1910" as="targetPoint" />
            <Array as="points">
              <mxPoint x="20" y="1910" />
            </Array>
          </mxGeometry>
        </mxCell>
        <mxCell id="U3ueGLIZ5XUcP0PDT6xN-116" value="5.存储body" style="endArrow=classic;html=1;rounded=0;fontSize=16;exitX=0.201;exitY=1.002;exitDx=0;exitDy=0;exitPerimeter=0;entryX=0;entryY=0;entryDx=0;entryDy=27.5;entryPerimeter=0;" parent="1" source="U3ueGLIZ5XUcP0PDT6xN-61" target="U3ueGLIZ5XUcP0PDT6xN-73" edge="1">
          <mxGeometry width="50" height="50" relative="1" as="geometry">
            <mxPoint x="110" y="2070" as="sourcePoint" />
            <mxPoint x="108.03999999999996" y="2117.9" as="targetPoint" />
          </mxGeometry>
        </mxCell>
        <mxCell id="U3ueGLIZ5XUcP0PDT6xN-118" value="7.消费body回调" style="endArrow=classic;html=1;rounded=0;fontSize=16;entryX=0;entryY=0.5;entryDx=0;entryDy=0;exitX=1.047;exitY=0.207;exitDx=0;exitDy=0;exitPerimeter=0;" parent="1" edge="1">
          <mxGeometry x="-0.1407" y="9" width="50" height="50" relative="1" as="geometry">
            <mxPoint x="-38.710000000000036" y="1752.4099999999999" as="sourcePoint" />
            <mxPoint x="98" y="1752" as="targetPoint" />
            <mxPoint as="offset" />
          </mxGeometry>
        </mxCell>
        <mxCell id="U3ueGLIZ5XUcP0PDT6xN-122" value="10.消费msglist" style="endArrow=classic;html=1;rounded=0;fontSize=16;exitX=1;exitY=0.619;exitDx=0;exitDy=0;exitPerimeter=0;" parent="1" edge="1">
          <mxGeometry width="50" height="50" relative="1" as="geometry">
            <mxPoint x="-40" y="1971.9699999999998" as="sourcePoint" />
            <mxPoint x="80" y="1972" as="targetPoint" />
          </mxGeometry>
        </mxCell>
        <mxCell id="U3ueGLIZ5XUcP0PDT6xN-123" value="11.存msglist" style="endArrow=classic;html=1;rounded=0;fontSize=16;exitX=0.826;exitY=0.991;exitDx=0;exitDy=0;exitPerimeter=0;entryX=0.5;entryY=0;entryDx=0;entryDy=0;entryPerimeter=0;" parent="1" source="U3ueGLIZ5XUcP0PDT6xN-61" target="U3ueGLIZ5XUcP0PDT6xN-73" edge="1">
          <mxGeometry width="50" height="50" relative="1" as="geometry">
            <mxPoint x="199.99499999999998" y="2017.3600000000001" as="sourcePoint" />
            <mxPoint x="280" y="2080" as="targetPoint" />
          </mxGeometry>
        </mxCell>
        <mxCell id="U3ueGLIZ5XUcP0PDT6xN-124" value="" style="rounded=0;whiteSpace=wrap;html=1;fontSize=16;" parent="1" vertex="1">
          <mxGeometry x="380" y="2983" width="280" height="130" as="geometry" />
        </mxCell>
        <mxCell id="U3ueGLIZ5XUcP0PDT6xN-125" value="" style="rounded=0;whiteSpace=wrap;html=1;fontSize=16;" parent="1" vertex="1">
          <mxGeometry x="90" y="2985" width="270" height="130" as="geometry" />
        </mxCell>
        <mxCell id="U3ueGLIZ5XUcP0PDT6xN-126" value="10.fetch" style="edgeStyle=orthogonalEdgeStyle;rounded=0;orthogonalLoop=1;jettySize=auto;html=1;exitX=0.25;exitY=1;exitDx=0;exitDy=0;entryX=0.207;entryY=0;entryDx=0;entryDy=0;entryPerimeter=0;fontSize=16;" parent="1" source="U3ueGLIZ5XUcP0PDT6xN-127" target="U3ueGLIZ5XUcP0PDT6xN-131" edge="1">
          <mxGeometry relative="1" as="geometry" />
        </mxCell>
        <mxCell id="U3ueGLIZ5XUcP0PDT6xN-127" value="&lt;font style=&quot;font-size: 18px;&quot;&gt;push_ap&lt;/font&gt;" style="rounded=1;whiteSpace=wrap;html=1;fontSize=16;" parent="1" vertex="1">
          <mxGeometry x="320" y="2428" width="140" height="60" as="geometry" />
        </mxCell>
        <mxCell id="U3ueGLIZ5XUcP0PDT6xN-128" value="9.notify" style="edgeStyle=orthogonalEdgeStyle;rounded=0;orthogonalLoop=1;jettySize=auto;html=1;exitX=1;exitY=0.5;exitDx=0;exitDy=0;entryX=0;entryY=0.5;entryDx=0;entryDy=0;fontSize=16;" parent="1" source="U3ueGLIZ5XUcP0PDT6xN-130" target="U3ueGLIZ5XUcP0PDT6xN-127" edge="1">
          <mxGeometry relative="1" as="geometry" />
        </mxCell>
        <mxCell id="U3ueGLIZ5XUcP0PDT6xN-130" value="&lt;font style=&quot;font-size: 18px;&quot;&gt;push_yychan&lt;/font&gt;" style="rounded=1;whiteSpace=wrap;html=1;fontSize=16;" parent="1" vertex="1">
          <mxGeometry x="90" y="2558" width="140" height="90" as="geometry" />
        </mxCell>
        <mxCell id="U3ueGLIZ5XUcP0PDT6xN-131" value="&lt;font style=&quot;font-size: 18px;&quot;&gt;im_pushdispatch&lt;/font&gt;" style="rounded=1;whiteSpace=wrap;html=1;fontSize=16;" parent="1" vertex="1">
          <mxGeometry x="325" y="2558" width="145" height="60" as="geometry" />
        </mxCell>
        <mxCell id="U3ueGLIZ5XUcP0PDT6xN-133" value="&lt;font style=&quot;font-size: 18px;&quot;&gt;push_dao_execv2&lt;/font&gt;" style="rounded=1;whiteSpace=wrap;html=1;fontSize=16;" parent="1" vertex="1">
          <mxGeometry x="87.5" y="2697" width="145" height="62" as="geometry" />
        </mxCell>
        <mxCell id="U3ueGLIZ5XUcP0PDT6xN-134" style="edgeStyle=orthogonalEdgeStyle;rounded=0;orthogonalLoop=1;jettySize=auto;html=1;exitX=1;exitY=0.5;exitDx=0;exitDy=0;entryX=1;entryY=0.75;entryDx=0;entryDy=0;fontSize=16;" parent="1" source="U3ueGLIZ5XUcP0PDT6xN-136" target="U3ueGLIZ5XUcP0PDT6xN-127" edge="1">
          <mxGeometry relative="1" as="geometry">
            <Array as="points">
              <mxPoint x="530" y="2728" />
              <mxPoint x="530" y="2473" />
            </Array>
          </mxGeometry>
        </mxCell>
        <mxCell id="U3ueGLIZ5XUcP0PDT6xN-135" value="13. res" style="edgeLabel;html=1;align=center;verticalAlign=middle;resizable=0;points=[];fontSize=16;" parent="U3ueGLIZ5XUcP0PDT6xN-134" vertex="1" connectable="0">
          <mxGeometry x="-0.5288" y="2" relative="1" as="geometry">
            <mxPoint as="offset" />
          </mxGeometry>
        </mxCell>
        <mxCell id="U3ueGLIZ5XUcP0PDT6xN-136" value="&lt;font style=&quot;font-size: 18px;&quot;&gt;im_pushreader&lt;/font&gt;" style="rounded=1;whiteSpace=wrap;html=1;fontSize=16;" parent="1" vertex="1">
          <mxGeometry x="330" y="2698" width="160" height="60" as="geometry" />
        </mxCell>
        <mxCell id="U3ueGLIZ5XUcP0PDT6xN-137" value="shard2" style="shape=cylinder3;whiteSpace=wrap;html=1;boundedLbl=1;backgroundOutline=1;size=15;fontSize=16;" parent="1" vertex="1">
          <mxGeometry x="195" y="3025" width="60" height="80" as="geometry" />
        </mxCell>
        <mxCell id="U3ueGLIZ5XUcP0PDT6xN-138" value="shard3" style="shape=cylinder3;whiteSpace=wrap;html=1;boundedLbl=1;backgroundOutline=1;size=15;fontSize=16;" parent="1" vertex="1">
          <mxGeometry x="285" y="3025" width="60" height="80" as="geometry" />
        </mxCell>
        <mxCell id="U3ueGLIZ5XUcP0PDT6xN-139" value="shard1" style="shape=cylinder3;whiteSpace=wrap;html=1;boundedLbl=1;backgroundOutline=1;size=15;fontSize=16;" parent="1" vertex="1">
          <mxGeometry x="110" y="3023" width="60" height="80" as="geometry" />
        </mxCell>
        <mxCell id="U3ueGLIZ5XUcP0PDT6xN-140" value="shard2" style="shape=cylinder3;whiteSpace=wrap;html=1;boundedLbl=1;backgroundOutline=1;size=15;fontSize=16;" parent="1" vertex="1">
          <mxGeometry x="491" y="3023" width="60" height="80" as="geometry" />
        </mxCell>
        <mxCell id="U3ueGLIZ5XUcP0PDT6xN-141" value="shard3" style="shape=cylinder3;whiteSpace=wrap;html=1;boundedLbl=1;backgroundOutline=1;size=15;fontSize=16;" parent="1" vertex="1">
          <mxGeometry x="580" y="3023" width="60" height="80" as="geometry" />
        </mxCell>
        <mxCell id="U3ueGLIZ5XUcP0PDT6xN-142" value="shard1" style="shape=cylinder3;whiteSpace=wrap;html=1;boundedLbl=1;backgroundOutline=1;size=15;fontSize=16;" parent="1" vertex="1">
          <mxGeometry x="406" y="3023" width="60" height="80" as="geometry" />
        </mxCell>
        <mxCell id="U3ueGLIZ5XUcP0PDT6xN-143" value="&lt;font style=&quot;font-size: 18px;&quot;&gt;&lt;b&gt;深圳&amp;nbsp; master&lt;/b&gt;&lt;/font&gt;" style="text;html=1;strokeColor=none;fillColor=none;align=center;verticalAlign=middle;whiteSpace=wrap;rounded=0;fontSize=16;" parent="1" vertex="1">
          <mxGeometry x="100" y="2985" width="110" height="30" as="geometry" />
        </mxCell>
        <mxCell id="U3ueGLIZ5XUcP0PDT6xN-144" value="&lt;b&gt;&lt;font style=&quot;font-size: 18px;&quot;&gt;无锡 slave&lt;/font&gt;&lt;/b&gt;" style="text;html=1;strokeColor=none;fillColor=none;align=center;verticalAlign=middle;whiteSpace=wrap;rounded=0;fontSize=16;" parent="1" vertex="1">
          <mxGeometry x="390" y="2983" width="106" height="30" as="geometry" />
        </mxCell>
        <mxCell id="U3ueGLIZ5XUcP0PDT6xN-162" style="edgeStyle=orthogonalEdgeStyle;rounded=0;orthogonalLoop=1;jettySize=auto;html=1;fontSize=16;" parent="1" source="U3ueGLIZ5XUcP0PDT6xN-146" edge="1">
          <mxGeometry relative="1" as="geometry">
            <mxPoint x="20" y="2468" as="targetPoint" />
          </mxGeometry>
        </mxCell>
        <mxCell id="U3ueGLIZ5XUcP0PDT6xN-146" value="&lt;font style=&quot;font-size: 18px;&quot;&gt;push_server&lt;/font&gt;" style="rounded=1;whiteSpace=wrap;html=1;fontSize=16;" parent="1" vertex="1">
          <mxGeometry x="97.5" y="2438" width="130" height="60" as="geometry" />
        </mxCell>
        <mxCell id="U3ueGLIZ5XUcP0PDT6xN-148" value="11.fetch" style="endArrow=classic;html=1;rounded=0;fontSize=16;exitX=0.162;exitY=1.014;exitDx=0;exitDy=0;exitPerimeter=0;" parent="1" edge="1">
          <mxGeometry width="50" height="50" relative="1" as="geometry">
            <mxPoint x="354.4899999999998" y="2618.84" as="sourcePoint" />
            <mxPoint x="356" y="2698" as="targetPoint" />
          </mxGeometry>
        </mxCell>
        <mxCell id="U3ueGLIZ5XUcP0PDT6xN-149" value="14. ack" style="endArrow=classic;html=1;rounded=0;fontSize=16;entryX=0.698;entryY=-0.025;entryDx=0;entryDy=0;entryPerimeter=0;exitX=0.75;exitY=1;exitDx=0;exitDy=0;" parent="1" source="U3ueGLIZ5XUcP0PDT6xN-127" target="U3ueGLIZ5XUcP0PDT6xN-131" edge="1">
          <mxGeometry width="50" height="50" relative="1" as="geometry">
            <mxPoint x="420" y="2538" as="sourcePoint" />
            <mxPoint x="470" y="2488" as="targetPoint" />
          </mxGeometry>
        </mxCell>
        <mxCell id="U3ueGLIZ5XUcP0PDT6xN-150" value="15.ack" style="endArrow=classic;html=1;rounded=0;fontSize=16;exitX=0.698;exitY=1.053;exitDx=0;exitDy=0;exitPerimeter=0;" parent="1" source="U3ueGLIZ5XUcP0PDT6xN-131" edge="1">
          <mxGeometry width="50" height="50" relative="1" as="geometry">
            <mxPoint x="420" y="2668" as="sourcePoint" />
            <mxPoint x="426" y="2698" as="targetPoint" />
            <Array as="points">
              <mxPoint x="426" y="2658" />
            </Array>
          </mxGeometry>
        </mxCell>
        <mxCell id="U3ueGLIZ5XUcP0PDT6xN-153" value="kafka" style="rounded=1;whiteSpace=wrap;html=1;fontSize=16;" parent="1" vertex="1">
          <mxGeometry x="-50" y="2450" width="70" height="630" as="geometry" />
        </mxCell>
        <mxCell id="U3ueGLIZ5XUcP0PDT6xN-156" value="5.存储body" style="endArrow=classic;html=1;rounded=0;fontSize=16;exitX=0.201;exitY=1.002;exitDx=0;exitDy=0;exitPerimeter=0;entryX=0.164;entryY=0.03;entryDx=0;entryDy=0;entryPerimeter=0;" parent="1" source="U3ueGLIZ5XUcP0PDT6xN-133" target="U3ueGLIZ5XUcP0PDT6xN-143" edge="1">
          <mxGeometry width="50" height="50" relative="1" as="geometry">
            <mxPoint x="120" y="2938" as="sourcePoint" />
            <mxPoint x="120" y="2978" as="targetPoint" />
          </mxGeometry>
        </mxCell>
        <mxCell id="U3ueGLIZ5XUcP0PDT6xN-159" value="8.获取msglist" style="text;html=1;strokeColor=none;fillColor=none;align=center;verticalAlign=middle;whiteSpace=wrap;rounded=0;fontSize=16;" parent="1" vertex="1">
          <mxGeometry x="240" y="2713" width="60" height="30" as="geometry" />
        </mxCell>
        <mxCell id="U3ueGLIZ5XUcP0PDT6xN-161" value="11.存msglist" style="endArrow=classic;html=1;rounded=0;fontSize=16;exitX=0.201;exitY=1.002;exitDx=0;exitDy=0;exitPerimeter=0;entryX=0.164;entryY=0.03;entryDx=0;entryDy=0;entryPerimeter=0;" parent="1" edge="1">
          <mxGeometry width="50" height="50" relative="1" as="geometry">
            <mxPoint x="209.9949999999999" y="2885.36" as="sourcePoint" />
            <mxPoint x="208.88999999999987" y="2983" as="targetPoint" />
          </mxGeometry>
        </mxCell>
        <mxCell id="U3ueGLIZ5XUcP0PDT6xN-163" value="" style="endArrow=classic;html=1;rounded=0;fontSize=16;entryX=0;entryY=0.25;entryDx=0;entryDy=0;exitX=1;exitY=0.207;exitDx=0;exitDy=0;exitPerimeter=0;" parent="1" source="U3ueGLIZ5XUcP0PDT6xN-153" target="U3ueGLIZ5XUcP0PDT6xN-130" edge="1">
          <mxGeometry width="50" height="50" relative="1" as="geometry">
            <mxPoint x="20" y="2620" as="sourcePoint" />
            <mxPoint x="70" y="2570" as="targetPoint" />
          </mxGeometry>
        </mxCell>
        <mxCell id="U3ueGLIZ5XUcP0PDT6xN-164" value="" style="endArrow=classic;html=1;rounded=0;fontSize=16;exitX=0;exitY=0.733;exitDx=0;exitDy=0;exitPerimeter=0;" parent="1" source="U3ueGLIZ5XUcP0PDT6xN-130" edge="1">
          <mxGeometry width="50" height="50" relative="1" as="geometry">
            <mxPoint x="20" y="2660" as="sourcePoint" />
            <mxPoint x="20" y="2624" as="targetPoint" />
          </mxGeometry>
        </mxCell>
        <mxCell id="U3ueGLIZ5XUcP0PDT6xN-165" value="" style="endArrow=classic;html=1;rounded=0;fontSize=16;entryX=1.047;entryY=0.565;entryDx=0;entryDy=0;entryPerimeter=0;" parent="1" target="U3ueGLIZ5XUcP0PDT6xN-153" edge="1">
          <mxGeometry width="50" height="50" relative="1" as="geometry">
            <mxPoint x="440" y="2800" as="sourcePoint" />
            <mxPoint x="430" y="2830" as="targetPoint" />
          </mxGeometry>
        </mxCell>
        <mxCell id="U3ueGLIZ5XUcP0PDT6xN-168" value="12.写msglist回调" style="edgeStyle=orthogonalEdgeStyle;rounded=0;orthogonalLoop=1;jettySize=auto;html=1;fontSize=16;exitX=0;exitY=0.5;exitDx=0;exitDy=0;" parent="1" edge="1">
          <mxGeometry relative="1" as="geometry">
            <mxPoint x="-38" y="1996" as="targetPoint" />
            <mxPoint x="81" y="1996" as="sourcePoint" />
          </mxGeometry>
        </mxCell>
        <mxCell id="U3ueGLIZ5XUcP0PDT6xN-171" value="" style="endArrow=classic;html=1;rounded=0;fontSize=16;exitX=-0.033;exitY=0.676;exitDx=0;exitDy=0;exitPerimeter=0;" parent="1" source="U3ueGLIZ5XUcP0PDT6xN-56" edge="1">
          <mxGeometry width="50" height="50" relative="1" as="geometry">
            <mxPoint x="-40" y="1820" as="sourcePoint" />
            <mxPoint x="-40" y="1778" as="targetPoint" />
          </mxGeometry>
        </mxCell>
        <mxCell id="U3ueGLIZ5XUcP0PDT6xN-172" value="9.发布msglist" style="edgeLabel;html=1;align=center;verticalAlign=middle;resizable=0;points=[];fontSize=16;" parent="U3ueGLIZ5XUcP0PDT6xN-171" vertex="1" connectable="0">
          <mxGeometry x="0.1557" y="1" relative="1" as="geometry">
            <mxPoint as="offset" />
          </mxGeometry>
        </mxCell>
        <mxCell id="U3ueGLIZ5XUcP0PDT6xN-173" value="" style="endArrow=classic;html=1;rounded=0;fontSize=16;exitX=1.03;exitY=0.351;exitDx=0;exitDy=0;exitPerimeter=0;entryX=-0.029;entryY=0.857;entryDx=0;entryDy=0;entryPerimeter=0;" parent="1" edge="1">
          <mxGeometry width="50" height="50" relative="1" as="geometry">
            <mxPoint x="-35.47000000000009" y="1793.58" as="sourcePoint" />
            <mxPoint x="97.50000000000017" y="1801.4099999999999" as="targetPoint" />
          </mxGeometry>
        </mxCell>
        <mxCell id="U3ueGLIZ5XUcP0PDT6xN-174" value="13.消费msglist回调" style="edgeLabel;html=1;align=center;verticalAlign=middle;resizable=0;points=[];fontSize=16;" parent="U3ueGLIZ5XUcP0PDT6xN-173" vertex="1" connectable="0">
          <mxGeometry x="-0.2328" y="-1" relative="1" as="geometry">
            <mxPoint y="5" as="offset" />
          </mxGeometry>
        </mxCell>
        <mxCell id="U3ueGLIZ5XUcP0PDT6xN-175" value="" style="endArrow=classic;html=1;rounded=0;fontSize=16;entryX=0.579;entryY=0.025;entryDx=0;entryDy=0;entryPerimeter=0;exitX=0.857;exitY=1.02;exitDx=0;exitDy=0;exitPerimeter=0;" parent="1" source="U3ueGLIZ5XUcP0PDT6xN-56" target="U3ueGLIZ5XUcP0PDT6xN-73" edge="1">
          <mxGeometry width="50" height="50" relative="1" as="geometry">
            <mxPoint x="290" y="2080" as="sourcePoint" />
            <mxPoint x="300" y="1820" as="targetPoint" />
          </mxGeometry>
        </mxCell>
        <mxCell id="U3ueGLIZ5XUcP0PDT6xN-176" value="8.就近读msglist" style="edgeLabel;html=1;align=center;verticalAlign=middle;resizable=0;points=[];fontSize=16;" parent="U3ueGLIZ5XUcP0PDT6xN-175" vertex="1" connectable="0">
          <mxGeometry x="-0.3612" y="-2" relative="1" as="geometry">
            <mxPoint x="23" as="offset" />
          </mxGeometry>
        </mxCell>
        <mxCell id="U3ueGLIZ5XUcP0PDT6xN-179" value="&lt;font style=&quot;font-size: 18px;&quot;&gt;push_yychan&lt;/font&gt;" style="rounded=1;whiteSpace=wrap;html=1;fontSize=16;" parent="1" vertex="1">
          <mxGeometry x="200" y="3310" width="135" height="110" as="geometry" />
        </mxCell>
        <mxCell id="U3ueGLIZ5XUcP0PDT6xN-180" value="&lt;font style=&quot;font-size: 18px;&quot;&gt;push_dao_execv2&lt;/font&gt;" style="rounded=1;whiteSpace=wrap;html=1;fontSize=16;" parent="1" vertex="1">
          <mxGeometry x="200" y="3460" width="145" height="90" as="geometry" />
        </mxCell>
        <mxCell id="U3ueGLIZ5XUcP0PDT6xN-184" value="1.发布任务" style="edgeStyle=orthogonalEdgeStyle;rounded=0;orthogonalLoop=1;jettySize=auto;html=1;fontSize=16;" parent="1" source="U3ueGLIZ5XUcP0PDT6xN-181" edge="1">
          <mxGeometry relative="1" as="geometry">
            <mxPoint x="40" y="3260" as="targetPoint" />
            <Array as="points">
              <mxPoint x="90" y="3261" />
              <mxPoint x="90" y="3260" />
              <mxPoint x="43" y="3260" />
            </Array>
          </mxGeometry>
        </mxCell>
        <mxCell id="U3ueGLIZ5XUcP0PDT6xN-181" value="&lt;font style=&quot;font-size: 18px;&quot;&gt;push_server&lt;/font&gt;" style="rounded=1;whiteSpace=wrap;html=1;fontSize=16;" parent="1" vertex="1">
          <mxGeometry x="195" y="3231" width="130" height="60" as="geometry" />
        </mxCell>
        <mxCell id="U3ueGLIZ5XUcP0PDT6xN-182" value="kafka" style="rounded=1;whiteSpace=wrap;html=1;fontSize=16;" parent="1" vertex="1">
          <mxGeometry x="10" y="3231" width="30" height="359" as="geometry" />
        </mxCell>
        <mxCell id="U3ueGLIZ5XUcP0PDT6xN-185" value="2.消费任务" style="endArrow=classic;html=1;rounded=0;fontSize=16;entryX=-0.028;entryY=0.189;entryDx=0;entryDy=0;entryPerimeter=0;" parent="1" target="U3ueGLIZ5XUcP0PDT6xN-179" edge="1">
          <mxGeometry width="50" height="50" relative="1" as="geometry">
            <mxPoint x="40" y="3330" as="sourcePoint" />
            <mxPoint x="130" y="3330" as="targetPoint" />
          </mxGeometry>
        </mxCell>
        <mxCell id="U3ueGLIZ5XUcP0PDT6xN-187" value="" style="endArrow=classic;html=1;rounded=0;fontSize=16;exitX=0;exitY=0.455;exitDx=0;exitDy=0;exitPerimeter=0;" parent="1" source="U3ueGLIZ5XUcP0PDT6xN-179" edge="1">
          <mxGeometry width="50" height="50" relative="1" as="geometry">
            <mxPoint x="150" y="3370" as="sourcePoint" />
            <mxPoint x="40" y="3360" as="targetPoint" />
          </mxGeometry>
        </mxCell>
        <mxCell id="U3ueGLIZ5XUcP0PDT6xN-188" value="3.发布存body" style="edgeLabel;html=1;align=center;verticalAlign=middle;resizable=0;points=[];fontSize=16;" parent="U3ueGLIZ5XUcP0PDT6xN-187" vertex="1" connectable="0">
          <mxGeometry x="0.4839" y="1" relative="1" as="geometry">
            <mxPoint x="29" y="-5" as="offset" />
          </mxGeometry>
        </mxCell>
        <mxCell id="U3ueGLIZ5XUcP0PDT6xN-190" value="4.消费存body" style="endArrow=classic;html=1;rounded=0;fontSize=16;entryX=0;entryY=0.25;entryDx=0;entryDy=0;exitX=1;exitY=0.6;exitDx=0;exitDy=0;exitPerimeter=0;fillColor=#fff2cc;strokeColor=#d6b656;fontColor=#FF3333;" parent="1" source="U3ueGLIZ5XUcP0PDT6xN-182" target="U3ueGLIZ5XUcP0PDT6xN-180" edge="1">
          <mxGeometry width="50" height="50" relative="1" as="geometry">
            <mxPoint x="43.30000000000018" y="3488.16" as="sourcePoint" />
            <mxPoint x="160" y="3488.9700000000003" as="targetPoint" />
          </mxGeometry>
        </mxCell>
        <mxCell id="U3ueGLIZ5XUcP0PDT6xN-191" value="master" style="shape=cylinder3;whiteSpace=wrap;html=1;boundedLbl=1;backgroundOutline=1;size=15;fontSize=16;" parent="1" vertex="1">
          <mxGeometry x="360" y="3580" width="60" height="80" as="geometry" />
        </mxCell>
        <mxCell id="U3ueGLIZ5XUcP0PDT6xN-192" value="" style="endArrow=classic;html=1;rounded=0;fontSize=16;entryX=0;entryY=0;entryDx=0;entryDy=15;entryPerimeter=0;" parent="1" source="U3ueGLIZ5XUcP0PDT6xN-180" target="U3ueGLIZ5XUcP0PDT6xN-191" edge="1">
          <mxGeometry width="50" height="50" relative="1" as="geometry">
            <mxPoint x="380" y="3620" as="sourcePoint" />
            <mxPoint x="310" y="3560" as="targetPoint" />
          </mxGeometry>
        </mxCell>
        <mxCell id="U3ueGLIZ5XUcP0PDT6xN-193" value="5.存body" style="edgeLabel;html=1;align=center;verticalAlign=middle;resizable=0;points=[];fontSize=16;fontColor=#FF3333;" parent="U3ueGLIZ5XUcP0PDT6xN-192" vertex="1" connectable="0">
          <mxGeometry x="-0.237" y="5" relative="1" as="geometry">
            <mxPoint as="offset" />
          </mxGeometry>
        </mxCell>
        <mxCell id="U3ueGLIZ5XUcP0PDT6xN-194" value="" style="endArrow=classic;html=1;rounded=0;fontSize=16;entryX=1.032;entryY=0.668;entryDx=0;entryDy=0;entryPerimeter=0;exitX=0;exitY=0.556;exitDx=0;exitDy=0;exitPerimeter=0;" parent="1" source="U3ueGLIZ5XUcP0PDT6xN-180" target="U3ueGLIZ5XUcP0PDT6xN-182" edge="1">
          <mxGeometry width="50" height="50" relative="1" as="geometry">
            <mxPoint x="110" y="3570" as="sourcePoint" />
            <mxPoint x="160" y="3520" as="targetPoint" />
            <Array as="points" />
          </mxGeometry>
        </mxCell>
        <mxCell id="U3ueGLIZ5XUcP0PDT6xN-195" value="6.发布body回调" style="edgeLabel;html=1;align=center;verticalAlign=middle;resizable=0;points=[];fontSize=16;fontColor=#FF3333;" parent="U3ueGLIZ5XUcP0PDT6xN-194" vertex="1" connectable="0">
          <mxGeometry x="0.2831" y="-2" relative="1" as="geometry">
            <mxPoint x="23" y="2" as="offset" />
          </mxGeometry>
        </mxCell>
        <mxCell id="U3ueGLIZ5XUcP0PDT6xN-196" value="7.消费存body回调" style="endArrow=classic;html=1;rounded=0;fontSize=16;entryX=-0.002;entryY=0.66;entryDx=0;entryDy=0;entryPerimeter=0;" parent="1" edge="1">
          <mxGeometry width="50" height="50" relative="1" as="geometry">
            <mxPoint x="39" y="3383" as="sourcePoint" />
            <mxPoint x="198.73000000000002" y="3382.6000000000004" as="targetPoint" />
          </mxGeometry>
        </mxCell>
        <mxCell id="U3ueGLIZ5XUcP0PDT6xN-197" value="8.就近list" style="endArrow=classic;html=1;rounded=0;fontSize=16;entryX=0.5;entryY=0;entryDx=0;entryDy=0;entryPerimeter=0;" parent="1" target="U3ueGLIZ5XUcP0PDT6xN-191" edge="1">
          <mxGeometry width="50" height="50" relative="1" as="geometry">
            <mxPoint x="340" y="3400" as="sourcePoint" />
            <mxPoint x="390" y="3350" as="targetPoint" />
          </mxGeometry>
        </mxCell>
        <mxCell id="U3ueGLIZ5XUcP0PDT6xN-198" value="9.发布存msglist" style="endArrow=classic;html=1;rounded=0;fontSize=16;exitX=-0.037;exitY=0.852;exitDx=0;exitDy=0;exitPerimeter=0;entryX=1.032;entryY=0.468;entryDx=0;entryDy=0;entryPerimeter=0;" parent="1" source="U3ueGLIZ5XUcP0PDT6xN-179" target="U3ueGLIZ5XUcP0PDT6xN-182" edge="1">
          <mxGeometry width="50" height="50" relative="1" as="geometry">
            <mxPoint x="40" y="3450" as="sourcePoint" />
            <mxPoint x="90" y="3400" as="targetPoint" />
          </mxGeometry>
        </mxCell>
        <mxCell id="U3ueGLIZ5XUcP0PDT6xN-199" value="" style="endArrow=classic;html=1;rounded=0;fontSize=16;exitX=1.071;exitY=0.732;exitDx=0;exitDy=0;exitPerimeter=0;entryX=-0.018;entryY=0.852;entryDx=0;entryDy=0;entryPerimeter=0;" parent="1" source="U3ueGLIZ5XUcP0PDT6xN-182" target="U3ueGLIZ5XUcP0PDT6xN-180" edge="1">
          <mxGeometry width="50" height="50" relative="1" as="geometry">
            <mxPoint x="40" y="3580" as="sourcePoint" />
            <mxPoint x="190" y="3538" as="targetPoint" />
          </mxGeometry>
        </mxCell>
        <mxCell id="U3ueGLIZ5XUcP0PDT6xN-200" value="10.消费存msglist" style="edgeLabel;html=1;align=center;verticalAlign=middle;resizable=0;points=[];fontSize=16;fontColor=#FF3333;" parent="U3ueGLIZ5XUcP0PDT6xN-199" vertex="1" connectable="0">
          <mxGeometry x="-0.5767" y="-3" relative="1" as="geometry">
            <mxPoint x="45" as="offset" />
          </mxGeometry>
        </mxCell>
        <mxCell id="U3ueGLIZ5XUcP0PDT6xN-201" value="11.存msglist" style="endArrow=classic;html=1;rounded=0;fontSize=16;exitX=0.648;exitY=1.035;exitDx=0;exitDy=0;exitPerimeter=0;entryX=0;entryY=0;entryDx=0;entryDy=52.5;entryPerimeter=0;fontColor=#FF3333;" parent="1" source="U3ueGLIZ5XUcP0PDT6xN-180" target="U3ueGLIZ5XUcP0PDT6xN-191" edge="1">
          <mxGeometry width="50" height="50" relative="1" as="geometry">
            <mxPoint x="280" y="3600" as="sourcePoint" />
            <mxPoint x="390" y="3610" as="targetPoint" />
          </mxGeometry>
        </mxCell>
        <mxCell id="U3ueGLIZ5XUcP0PDT6xN-202" value="" style="endArrow=classic;html=1;rounded=0;fontSize=16;exitX=0.144;exitY=1.009;exitDx=0;exitDy=0;exitPerimeter=0;entryX=1;entryY=0.833;entryDx=0;entryDy=0;entryPerimeter=0;" parent="1" source="U3ueGLIZ5XUcP0PDT6xN-180" target="U3ueGLIZ5XUcP0PDT6xN-182" edge="1">
          <mxGeometry width="50" height="50" relative="1" as="geometry">
            <mxPoint x="40" y="3620" as="sourcePoint" />
            <mxPoint x="90" y="3570" as="targetPoint" />
          </mxGeometry>
        </mxCell>
        <mxCell id="U3ueGLIZ5XUcP0PDT6xN-203" value="11.发布msglist回调" style="edgeLabel;html=1;align=center;verticalAlign=middle;resizable=0;points=[];fontSize=16;fontColor=#FF3333;" parent="U3ueGLIZ5XUcP0PDT6xN-202" vertex="1" connectable="0">
          <mxGeometry x="0.4598" y="1" relative="1" as="geometry">
            <mxPoint x="41" y="7" as="offset" />
          </mxGeometry>
        </mxCell>
        <mxCell id="U3ueGLIZ5XUcP0PDT6xN-204" value="" style="endArrow=classic;html=1;rounded=0;fontSize=16;entryX=0;entryY=1;entryDx=0;entryDy=0;" parent="1" edge="1">
          <mxGeometry width="50" height="50" relative="1" as="geometry">
            <mxPoint x="50" y="3424" as="sourcePoint" />
            <mxPoint x="200" y="3414" as="targetPoint" />
          </mxGeometry>
        </mxCell>
        <mxCell id="U3ueGLIZ5XUcP0PDT6xN-205" value="12.消费msglist回调" style="edgeLabel;html=1;align=center;verticalAlign=middle;resizable=0;points=[];fontSize=16;" parent="U3ueGLIZ5XUcP0PDT6xN-204" vertex="1" connectable="0">
          <mxGeometry x="-0.5486" y="-2" relative="1" as="geometry">
            <mxPoint x="26" as="offset" />
          </mxGeometry>
        </mxCell>
        <mxCell id="U3ueGLIZ5XUcP0PDT6xN-255" value="kafka" style="rounded=1;whiteSpace=wrap;html=1;fontSize=16;" parent="1" vertex="1">
          <mxGeometry x="-390" y="3231" width="30" height="269" as="geometry" />
        </mxCell>
        <mxCell id="U3ueGLIZ5XUcP0PDT6xN-257" value="&lt;font style=&quot;font-size: 18px;&quot;&gt;push_server&lt;/font&gt;" style="rounded=1;whiteSpace=wrap;html=1;fontSize=16;" parent="1" vertex="1">
          <mxGeometry x="-269" y="3232" width="130" height="60" as="geometry" />
        </mxCell>
        <mxCell id="U3ueGLIZ5XUcP0PDT6xN-258" value="&lt;font style=&quot;font-size: 18px;&quot;&gt;push_yychan&lt;/font&gt;" style="rounded=1;whiteSpace=wrap;html=1;fontSize=16;" parent="1" vertex="1">
          <mxGeometry x="-267" y="3310" width="135" height="110" as="geometry" />
        </mxCell>
        <mxCell id="U3ueGLIZ5XUcP0PDT6xN-260" value="" style="endArrow=classic;html=1;rounded=0;fontSize=16;exitX=0;exitY=0.5;exitDx=0;exitDy=0;entryX=1.051;entryY=0.076;entryDx=0;entryDy=0;entryPerimeter=0;" parent="1" source="U3ueGLIZ5XUcP0PDT6xN-257" target="U3ueGLIZ5XUcP0PDT6xN-255" edge="1">
          <mxGeometry width="50" height="50" relative="1" as="geometry">
            <mxPoint x="-350" y="3300" as="sourcePoint" />
            <mxPoint x="-320" y="3260" as="targetPoint" />
          </mxGeometry>
        </mxCell>
        <mxCell id="U3ueGLIZ5XUcP0PDT6xN-261" value="1.发布任务" style="edgeLabel;html=1;align=center;verticalAlign=middle;resizable=0;points=[];fontSize=16;" parent="U3ueGLIZ5XUcP0PDT6xN-260" vertex="1" connectable="0">
          <mxGeometry x="0.2132" y="-1" relative="1" as="geometry">
            <mxPoint x="14" as="offset" />
          </mxGeometry>
        </mxCell>
        <mxCell id="U3ueGLIZ5XUcP0PDT6xN-262" value="2. 消费任务" style="endArrow=classic;html=1;rounded=0;fontSize=16;" parent="1" edge="1">
          <mxGeometry x="0.0079" width="50" height="50" relative="1" as="geometry">
            <mxPoint x="-360" y="3336" as="sourcePoint" />
            <mxPoint x="-264" y="3336" as="targetPoint" />
            <mxPoint as="offset" />
          </mxGeometry>
        </mxCell>
        <mxCell id="U3ueGLIZ5XUcP0PDT6xN-264" value="" style="endArrow=classic;html=1;rounded=0;fontSize=16;entryX=-0.106;entryY=0.306;entryDx=0;entryDy=0;entryPerimeter=0;" parent="1" target="U3ueGLIZ5XUcP0PDT6xN-182" edge="1">
          <mxGeometry width="50" height="50" relative="1" as="geometry">
            <mxPoint x="-130" y="3341" as="sourcePoint" />
            <mxPoint x="-70" y="3340" as="targetPoint" />
          </mxGeometry>
        </mxCell>
        <mxCell id="U3ueGLIZ5XUcP0PDT6xN-265" value="3.发布存body" style="edgeLabel;html=1;align=center;verticalAlign=middle;resizable=0;points=[];fontSize=16;" parent="U3ueGLIZ5XUcP0PDT6xN-264" vertex="1" connectable="0">
          <mxGeometry x="-0.3969" y="2" relative="1" as="geometry">
            <mxPoint x="22" as="offset" />
          </mxGeometry>
        </mxCell>
        <mxCell id="U3ueGLIZ5XUcP0PDT6xN-266" value="9.发布存msglist" style="endArrow=classic;html=1;rounded=0;fontSize=16;entryX=-0.002;entryY=0.66;entryDx=0;entryDy=0;entryPerimeter=0;" parent="1" edge="1">
          <mxGeometry width="50" height="50" relative="1" as="geometry">
            <mxPoint x="-130" y="3401" as="sourcePoint" />
            <mxPoint x="12.730000000000018" y="3400.6000000000004" as="targetPoint" />
          </mxGeometry>
        </mxCell>
        <mxCell id="U3ueGLIZ5XUcP0PDT6xN-267" value="slave" style="shape=cylinder3;whiteSpace=wrap;html=1;boundedLbl=1;backgroundOutline=1;size=15;fontSize=16;" parent="1" vertex="1">
          <mxGeometry x="-229.5" y="3580" width="60" height="80" as="geometry" />
        </mxCell>
        <mxCell id="U3ueGLIZ5XUcP0PDT6xN-268" value="8.就近读msglist" style="endArrow=classic;html=1;rounded=0;fontSize=16;entryX=0.5;entryY=0;entryDx=0;entryDy=0;entryPerimeter=0;exitX=0.5;exitY=1;exitDx=0;exitDy=0;" parent="1" source="U3ueGLIZ5XUcP0PDT6xN-258" target="U3ueGLIZ5XUcP0PDT6xN-267" edge="1">
          <mxGeometry width="50" height="50" relative="1" as="geometry">
            <mxPoint x="-220" y="3470" as="sourcePoint" />
            <mxPoint x="-170" y="3420" as="targetPoint" />
          </mxGeometry>
        </mxCell>
        <mxCell id="U3ueGLIZ5XUcP0PDT6xN-272" value="" style="endArrow=classic;html=1;rounded=0;fontSize=16;exitX=-0.106;exitY=0.403;exitDx=0;exitDy=0;exitPerimeter=0;" parent="1" edge="1">
          <mxGeometry width="50" height="50" relative="1" as="geometry">
            <mxPoint x="6.820000000000164" y="3371.6769999999997" as="sourcePoint" />
            <mxPoint x="-130" y="3372" as="targetPoint" />
          </mxGeometry>
        </mxCell>
        <mxCell id="U3ueGLIZ5XUcP0PDT6xN-274" value="7.消费存body回调" style="edgeLabel;html=1;align=center;verticalAlign=middle;resizable=0;points=[];fontSize=16;" parent="U3ueGLIZ5XUcP0PDT6xN-272" vertex="1" connectable="0">
          <mxGeometry x="0.3197" relative="1" as="geometry">
            <mxPoint x="23" as="offset" />
          </mxGeometry>
        </mxCell>
        <mxCell id="U3ueGLIZ5XUcP0PDT6xN-275" value="" style="endArrow=classic;html=1;rounded=0;fontSize=16;entryX=1;entryY=1;entryDx=0;entryDy=0;" parent="1" target="U3ueGLIZ5XUcP0PDT6xN-258" edge="1">
          <mxGeometry width="50" height="50" relative="1" as="geometry">
            <mxPoint y="3420" as="sourcePoint" />
            <mxPoint x="-100" y="3420" as="targetPoint" />
          </mxGeometry>
        </mxCell>
        <mxCell id="U3ueGLIZ5XUcP0PDT6xN-276" value="12.消费msglist回调" style="edgeLabel;html=1;align=center;verticalAlign=middle;resizable=0;points=[];fontSize=16;" parent="U3ueGLIZ5XUcP0PDT6xN-275" vertex="1" connectable="0">
          <mxGeometry x="0.4615" relative="1" as="geometry">
            <mxPoint x="43" y="7" as="offset" />
          </mxGeometry>
        </mxCell>
        <mxCell id="U3ueGLIZ5XUcP0PDT6xN-282" value="同步" style="shape=flexArrow;endArrow=classic;html=1;rounded=0;fontSize=16;entryX=1;entryY=0;entryDx=0;entryDy=52.5;entryPerimeter=0;" parent="1" target="U3ueGLIZ5XUcP0PDT6xN-267" edge="1">
          <mxGeometry width="50" height="50" relative="1" as="geometry">
            <mxPoint x="350" y="3630" as="sourcePoint" />
            <mxPoint x="100" y="3660" as="targetPoint" />
          </mxGeometry>
        </mxCell>
        <mxCell id="U3ueGLIZ5XUcP0PDT6xN-285" value="无锡" style="text;html=1;strokeColor=none;fillColor=none;align=center;verticalAlign=middle;whiteSpace=wrap;rounded=0;fontSize=16;fontColor=#FF3333;" parent="1" vertex="1">
          <mxGeometry x="-413" y="3180" width="60" height="30" as="geometry" />
        </mxCell>
        <mxCell id="U3ueGLIZ5XUcP0PDT6xN-287" value="深圳" style="text;html=1;strokeColor=none;fillColor=none;align=center;verticalAlign=middle;whiteSpace=wrap;rounded=0;fontSize=16;fontColor=#FF3333;" parent="1" vertex="1">
          <mxGeometry x="-10" y="3180" width="60" height="30" as="geometry" />
        </mxCell>
        <mxCell id="U3ueGLIZ5XUcP0PDT6xN-288" value="kafka" style="rounded=0;whiteSpace=wrap;html=1;fontSize=16;fontColor=#FF3333;" parent="1" vertex="1">
          <mxGeometry x="-115.5" y="3871" width="565.5" height="40" as="geometry" />
        </mxCell>
        <mxCell id="U3ueGLIZ5XUcP0PDT6xN-291" value="&lt;font color=&quot;#000000&quot;&gt;1.发布任务&lt;/font&gt;" style="edgeStyle=orthogonalEdgeStyle;rounded=0;orthogonalLoop=1;jettySize=auto;html=1;fontSize=16;fontColor=#FF3333;exitX=0.331;exitY=0.008;exitDx=0;exitDy=0;exitPerimeter=0;" parent="1" source="U3ueGLIZ5XUcP0PDT6xN-289" edge="1">
          <mxGeometry relative="1" as="geometry">
            <mxPoint x="-80" y="3910" as="targetPoint" />
            <Array as="points">
              <mxPoint x="-80" y="3911" />
            </Array>
          </mxGeometry>
        </mxCell>
        <mxCell id="U3ueGLIZ5XUcP0PDT6xN-289" value="&lt;font style=&quot;font-size: 18px;&quot;&gt;push_server&lt;/font&gt;" style="rounded=1;whiteSpace=wrap;html=1;fontSize=16;" parent="1" vertex="1">
          <mxGeometry x="-119" y="3990.5" width="109" height="50" as="geometry" />
        </mxCell>
        <mxCell id="U3ueGLIZ5XUcP0PDT6xN-290" value="&lt;font style=&quot;font-size: 18px;&quot;&gt;push_yychan&lt;/font&gt;" style="rounded=1;whiteSpace=wrap;html=1;fontSize=16;" parent="1" vertex="1">
          <mxGeometry x="2.5" y="3991.5" width="230" height="49" as="geometry" />
        </mxCell>
        <mxCell id="U3ueGLIZ5XUcP0PDT6xN-293" value="" style="endArrow=classic;html=1;rounded=0;fontSize=16;fontColor=#FF3333;entryX=0.269;entryY=0;entryDx=0;entryDy=0;entryPerimeter=0;exitX=0.157;exitY=1.019;exitDx=0;exitDy=0;exitPerimeter=0;strokeColor=#FF3333;" parent="1" source="U3ueGLIZ5XUcP0PDT6xN-290" target="U3ueGLIZ5XUcP0PDT6xN-306" edge="1">
          <mxGeometry width="50" height="50" relative="1" as="geometry">
            <mxPoint x="62.20999999999984" y="4130.638" as="sourcePoint" />
            <mxPoint x="60.001000000000005" y="4053" as="targetPoint" />
          </mxGeometry>
        </mxCell>
        <mxCell id="U3ueGLIZ5XUcP0PDT6xN-294" value="3.发布存body" style="edgeLabel;html=1;align=center;verticalAlign=middle;resizable=0;points=[];fontSize=16;fontColor=#000000;horizontal=1;" parent="U3ueGLIZ5XUcP0PDT6xN-293" vertex="1" connectable="0">
          <mxGeometry x="-0.1854" y="-1" relative="1" as="geometry">
            <mxPoint x="-4" y="21" as="offset" />
          </mxGeometry>
        </mxCell>
        <mxCell id="U3ueGLIZ5XUcP0PDT6xN-296" value="" style="endArrow=classic;html=1;rounded=0;fontSize=16;fontColor=#000000;exitX=0.327;exitY=-0.009;exitDx=0;exitDy=0;exitPerimeter=0;entryX=0.293;entryY=0.99;entryDx=0;entryDy=0;entryPerimeter=0;strokeColor=#FF3333;" parent="1" edge="1">
          <mxGeometry width="50" height="50" relative="1" as="geometry">
            <mxPoint x="88.70274000000018" y="4169.64" as="sourcePoint" />
            <mxPoint x="85.88999999999987" y="4040.01" as="targetPoint" />
          </mxGeometry>
        </mxCell>
        <mxCell id="U3ueGLIZ5XUcP0PDT6xN-297" value="7.body回调" style="edgeLabel;html=1;align=center;verticalAlign=middle;resizable=0;points=[];fontSize=16;fontColor=#000000;" parent="U3ueGLIZ5XUcP0PDT6xN-296" vertex="1" connectable="0">
          <mxGeometry x="-0.2416" y="-1" relative="1" as="geometry">
            <mxPoint x="1" y="-51" as="offset" />
          </mxGeometry>
        </mxCell>
        <mxCell id="U3ueGLIZ5XUcP0PDT6xN-300" value="slave" style="shape=cylinder3;whiteSpace=wrap;html=1;boundedLbl=1;backgroundOutline=1;size=15;fontSize=16;" parent="1" vertex="1">
          <mxGeometry x="540" y="3960.5" width="60" height="80" as="geometry" />
        </mxCell>
        <mxCell id="U3ueGLIZ5XUcP0PDT6xN-306" value="kafka" style="rounded=0;whiteSpace=wrap;html=1;fontSize=16;fontColor=#FF3333;" parent="1" vertex="1">
          <mxGeometry x="-110.62" y="4170" width="560.62" height="40" as="geometry" />
        </mxCell>
        <mxCell id="U3ueGLIZ5XUcP0PDT6xN-307" value="&lt;font style=&quot;font-size: 18px;&quot;&gt;push_server&lt;/font&gt;" style="rounded=1;whiteSpace=wrap;html=1;fontSize=16;" parent="1" vertex="1">
          <mxGeometry x="-120" y="4300" width="107.5" height="60" as="geometry" />
        </mxCell>
        <mxCell id="U3ueGLIZ5XUcP0PDT6xN-308" value="&lt;font style=&quot;font-size: 18px;&quot;&gt;push_yychan&lt;/font&gt;" style="rounded=1;whiteSpace=wrap;html=1;fontSize=16;" parent="1" vertex="1">
          <mxGeometry y="4300" width="210" height="60" as="geometry" />
        </mxCell>
        <mxCell id="U3ueGLIZ5XUcP0PDT6xN-309" value="&lt;font style=&quot;font-size: 18px;&quot;&gt;push_dao_execv2&lt;/font&gt;" style="rounded=1;whiteSpace=wrap;html=1;fontSize=16;" parent="1" vertex="1">
          <mxGeometry x="256" y="4297" width="195" height="60" as="geometry" />
        </mxCell>
        <mxCell id="U3ueGLIZ5XUcP0PDT6xN-310" value="master" style="shape=cylinder3;whiteSpace=wrap;html=1;boundedLbl=1;backgroundOutline=1;size=15;fontSize=16;" parent="1" vertex="1">
          <mxGeometry x="551" y="4277" width="60" height="80" as="geometry" />
        </mxCell>
        <mxCell id="U3ueGLIZ5XUcP0PDT6xN-312" value="&lt;font color=&quot;#000000&quot;&gt;1.发布任务&lt;/font&gt;" style="edgeStyle=orthogonalEdgeStyle;rounded=0;orthogonalLoop=1;jettySize=auto;html=1;entryX=0.08;entryY=1;entryDx=0;entryDy=0;entryPerimeter=0;fontSize=16;fontColor=#FF3333;" parent="1" edge="1">
          <mxGeometry relative="1" as="geometry">
            <mxPoint x="-77.7" y="4300" as="sourcePoint" />
            <mxPoint x="-80.00000000000018" y="4210" as="targetPoint" />
            <Array as="points">
              <mxPoint x="-79.7" y="4300" />
            </Array>
          </mxGeometry>
        </mxCell>
        <mxCell id="U3ueGLIZ5XUcP0PDT6xN-313" value="2.消费任务" style="endArrow=classic;html=1;rounded=0;fontSize=16;fontColor=#000000;" parent="1" edge="1">
          <mxGeometry width="50" height="50" relative="1" as="geometry">
            <mxPoint x="20" y="4212" as="sourcePoint" />
            <mxPoint x="20" y="4300" as="targetPoint" />
          </mxGeometry>
        </mxCell>
        <mxCell id="U3ueGLIZ5XUcP0PDT6xN-314" value="" style="endArrow=classic;html=1;rounded=0;fontSize=16;fontColor=#000000;exitX=0.183;exitY=-0.025;exitDx=0;exitDy=0;exitPerimeter=0;entryX=0.282;entryY=1.065;entryDx=0;entryDy=0;entryPerimeter=0;" parent="1" edge="1">
          <mxGeometry width="50" height="50" relative="1" as="geometry">
            <mxPoint x="66.98500000000013" y="4299.5" as="sourcePoint" />
            <mxPoint x="65.32999999999993" y="4213.6" as="targetPoint" />
          </mxGeometry>
        </mxCell>
        <mxCell id="U3ueGLIZ5XUcP0PDT6xN-315" value="3.存body" style="edgeLabel;html=1;align=center;verticalAlign=middle;resizable=0;points=[];fontSize=16;fontColor=#000000;horizontal=1;" parent="U3ueGLIZ5XUcP0PDT6xN-314" vertex="1" connectable="0">
          <mxGeometry x="-0.1854" y="-1" relative="1" as="geometry">
            <mxPoint x="-7" y="21" as="offset" />
          </mxGeometry>
        </mxCell>
        <mxCell id="U3ueGLIZ5XUcP0PDT6xN-316" value="" style="endArrow=classic;html=1;rounded=0;fontSize=16;fontColor=#000000;entryX=0.438;entryY=-0.025;entryDx=0;entryDy=0;entryPerimeter=0;" parent="1" edge="1">
          <mxGeometry width="50" height="50" relative="1" as="geometry">
            <mxPoint x="122.5" y="4210" as="sourcePoint" />
            <mxPoint x="122.71000000000004" y="4298.5" as="targetPoint" />
          </mxGeometry>
        </mxCell>
        <mxCell id="U3ueGLIZ5XUcP0PDT6xN-317" value="7.body&lt;br&gt;回调" style="edgeLabel;html=1;align=center;verticalAlign=middle;resizable=0;points=[];fontSize=16;fontColor=#000000;" parent="U3ueGLIZ5XUcP0PDT6xN-316" vertex="1" connectable="0">
          <mxGeometry x="-0.2416" y="-1" relative="1" as="geometry">
            <mxPoint x="-27" y="-3" as="offset" />
          </mxGeometry>
        </mxCell>
        <mxCell id="U3ueGLIZ5XUcP0PDT6xN-318" value="9.存msglist" style="endArrow=classic;html=1;rounded=0;fontSize=16;fontColor=#000000;entryX=0.452;entryY=1.05;entryDx=0;entryDy=0;entryPerimeter=0;" parent="1" edge="1">
          <mxGeometry width="50" height="50" relative="1" as="geometry">
            <mxPoint x="162" y="4297" as="sourcePoint" />
            <mxPoint x="162.15999999999985" y="4212" as="targetPoint" />
          </mxGeometry>
        </mxCell>
        <mxCell id="U3ueGLIZ5XUcP0PDT6xN-321" value="4.存body" style="endArrow=classic;html=1;rounded=0;fontSize=16;fontColor=#000000;entryX=0.033;entryY=0;entryDx=0;entryDy=0;entryPerimeter=0;exitX=0.646;exitY=1.065;exitDx=0;exitDy=0;exitPerimeter=0;" parent="1" edge="1">
          <mxGeometry width="50" height="50" relative="1" as="geometry">
            <mxPoint x="281.9999999999998" y="4209.6" as="sourcePoint" />
            <mxPoint x="282.9100000000001" y="4297" as="targetPoint" />
          </mxGeometry>
        </mxCell>
        <mxCell id="U3ueGLIZ5XUcP0PDT6xN-322" value="&lt;div style=&quot;&quot;&gt;&lt;br&gt;&lt;/div&gt;" style="endArrow=classic;html=1;rounded=0;fontSize=16;fontColor=#000000;entryX=0.72;entryY=0.977;entryDx=0;entryDy=0;entryPerimeter=0;align=center;" parent="1" edge="1">
          <mxGeometry width="50" height="50" relative="1" as="geometry">
            <mxPoint x="331.7" y="4300.92" as="sourcePoint" />
            <mxPoint x="331.00000000000017" y="4210" as="targetPoint" />
          </mxGeometry>
        </mxCell>
        <mxCell id="U3ueGLIZ5XUcP0PDT6xN-323" value="６.body回调" style="text;html=1;strokeColor=none;fillColor=none;align=center;verticalAlign=middle;whiteSpace=wrap;rounded=0;fontSize=16;fontColor=#000000;" parent="1" vertex="1">
          <mxGeometry x="277" y="4270" width="113" height="30" as="geometry" />
        </mxCell>
        <mxCell id="U3ueGLIZ5XUcP0PDT6xN-324" value="10.存msglist" style="endArrow=classic;html=1;rounded=0;fontSize=16;fontColor=#000000;exitX=0.803;exitY=1.08;exitDx=0;exitDy=0;exitPerimeter=0;" parent="1" edge="1">
          <mxGeometry width="50" height="50" relative="1" as="geometry">
            <mxPoint x="385.03786000000036" y="4213.2" as="sourcePoint" />
            <mxPoint x="387" y="4300" as="targetPoint" />
          </mxGeometry>
        </mxCell>
        <mxCell id="U3ueGLIZ5XUcP0PDT6xN-325" value="" style="endArrow=classic;html=1;rounded=0;fontSize=16;fontColor=#000000;entryX=0.93;entryY=0.991;entryDx=0;entryDy=0;entryPerimeter=0;exitX=0.784;exitY=-0.024;exitDx=0;exitDy=0;exitPerimeter=0;" parent="1" edge="1">
          <mxGeometry width="50" height="50" relative="1" as="geometry">
            <mxPoint x="433.7600000000002" y="4295.56" as="sourcePoint" />
            <mxPoint x="432.65660000000025" y="4209.64" as="targetPoint" />
          </mxGeometry>
        </mxCell>
        <mxCell id="U3ueGLIZ5XUcP0PDT6xN-327" value="12.msglist回调" style="text;html=1;strokeColor=none;fillColor=none;align=center;verticalAlign=middle;whiteSpace=wrap;rounded=0;fontSize=16;fontColor=#000000;" parent="1" vertex="1">
          <mxGeometry x="406" y="4278.5" width="100" height="13" as="geometry" />
        </mxCell>
        <mxCell id="U3ueGLIZ5XUcP0PDT6xN-334" value="" style="endArrow=classic;html=1;rounded=0;fontSize=16;fontColor=#000000;exitX=0.536;exitY=1;exitDx=0;exitDy=0;exitPerimeter=0;" parent="1" edge="1">
          <mxGeometry width="50" height="50" relative="1" as="geometry">
            <mxPoint x="197.87231999999995" y="4210" as="sourcePoint" />
            <mxPoint x="198" y="4296" as="targetPoint" />
          </mxGeometry>
        </mxCell>
        <mxCell id="U3ueGLIZ5XUcP0PDT6xN-335" value="13.msglist回调" style="edgeLabel;html=1;align=center;verticalAlign=middle;resizable=0;points=[];fontSize=16;fontColor=#000000;" parent="U3ueGLIZ5XUcP0PDT6xN-334" vertex="1" connectable="0">
          <mxGeometry x="0.6293" y="3" relative="1" as="geometry">
            <mxPoint x="27" y="-2" as="offset" />
          </mxGeometry>
        </mxCell>
        <mxCell id="U3ueGLIZ5XUcP0PDT6xN-338" value="2.消费任务" style="endArrow=classic;html=1;rounded=0;fontSize=16;fontColor=#000000;exitX=0.233;exitY=0.975;exitDx=0;exitDy=0;exitPerimeter=0;" parent="1" source="U3ueGLIZ5XUcP0PDT6xN-288" edge="1">
          <mxGeometry width="50" height="50" relative="1" as="geometry">
            <mxPoint x="10" y="3960" as="sourcePoint" />
            <mxPoint x="16" y="3990" as="targetPoint" />
          </mxGeometry>
        </mxCell>
        <mxCell id="U3ueGLIZ5XUcP0PDT6xN-339" value="8.读msglist" style="endArrow=classic;html=1;rounded=0;fontSize=16;fontColor=#000000;entryX=0;entryY=0;entryDx=0;entryDy=52.5;entryPerimeter=0;exitX=1;exitY=0.5;exitDx=0;exitDy=0;" parent="1" source="U3ueGLIZ5XUcP0PDT6xN-290" target="U3ueGLIZ5XUcP0PDT6xN-300" edge="1">
          <mxGeometry width="50" height="50" relative="1" as="geometry">
            <mxPoint x="230" y="4060" as="sourcePoint" />
            <mxPoint x="280" y="4010" as="targetPoint" />
          </mxGeometry>
        </mxCell>
        <mxCell id="U3ueGLIZ5XUcP0PDT6xN-340" value="" style="endArrow=classic;html=1;rounded=0;fontSize=16;fontColor=#000000;entryX=0.407;entryY=-0.038;entryDx=0;entryDy=0;entryPerimeter=0;exitX=0.5;exitY=1;exitDx=0;exitDy=0;strokeColor=#FF3333;" parent="1" edge="1">
          <mxGeometry width="50" height="50" relative="1" as="geometry">
            <mxPoint x="134.5" y="4040.5" as="sourcePoint" />
            <mxPoint x="134.55234000000019" y="4168.48" as="targetPoint" />
          </mxGeometry>
        </mxCell>
        <mxCell id="U3ueGLIZ5XUcP0PDT6xN-341" value="9.发布存msglist" style="text;html=1;strokeColor=none;fillColor=none;align=center;verticalAlign=middle;whiteSpace=wrap;rounded=0;fontSize=16;fontColor=#000000;" parent="1" vertex="1">
          <mxGeometry x="100" y="4120" width="85" height="30" as="geometry" />
        </mxCell>
        <mxCell id="U3ueGLIZ5XUcP0PDT6xN-342" value="" style="endArrow=classic;html=1;rounded=0;fontSize=16;fontColor=#000000;exitX=0.425;exitY=0.077;exitDx=0;exitDy=0;exitPerimeter=0;entryX=0.815;entryY=0.99;entryDx=0;entryDy=0;entryPerimeter=0;strokeColor=#FF3333;" parent="1" source="U3ueGLIZ5XUcP0PDT6xN-354" target="U3ueGLIZ5XUcP0PDT6xN-290" edge="1">
          <mxGeometry width="50" height="50" relative="1" as="geometry">
            <mxPoint x="190" y="3920" as="sourcePoint" />
            <mxPoint x="190" y="4050" as="targetPoint" />
          </mxGeometry>
        </mxCell>
        <mxCell id="U3ueGLIZ5XUcP0PDT6xN-343" value="13.消费msglist回调" style="text;html=1;strokeColor=none;fillColor=none;align=center;verticalAlign=middle;whiteSpace=wrap;rounded=0;fontSize=16;fontColor=#000000;" parent="1" vertex="1">
          <mxGeometry x="170" y="4050" width="130" height="30" as="geometry" />
        </mxCell>
        <mxCell id="U3ueGLIZ5XUcP0PDT6xN-347" value="5.存body" style="endArrow=classic;html=1;rounded=0;fontSize=16;fontColor=#000000;entryX=0;entryY=0.606;entryDx=0;entryDy=0;entryPerimeter=0;" parent="1" target="U3ueGLIZ5XUcP0PDT6xN-310" edge="1">
          <mxGeometry width="50" height="50" relative="1" as="geometry">
            <mxPoint x="450" y="4327" as="sourcePoint" />
            <mxPoint x="520" y="4327" as="targetPoint" />
          </mxGeometry>
        </mxCell>
        <mxCell id="U3ueGLIZ5XUcP0PDT6xN-349" value="11.存msglist" style="endArrow=classic;html=1;rounded=0;fontSize=16;fontColor=#000000;exitX=1.003;exitY=0.878;exitDx=0;exitDy=0;exitPerimeter=0;entryX=0.026;entryY=0.919;entryDx=0;entryDy=0;entryPerimeter=0;" parent="1" source="U3ueGLIZ5XUcP0PDT6xN-309" target="U3ueGLIZ5XUcP0PDT6xN-310" edge="1">
          <mxGeometry width="50" height="50" relative="1" as="geometry">
            <mxPoint x="450" y="4400" as="sourcePoint" />
            <mxPoint x="530" y="4350" as="targetPoint" />
          </mxGeometry>
        </mxCell>
        <mxCell id="U3ueGLIZ5XUcP0PDT6xN-350" value="" style="endArrow=classic;html=1;rounded=0;fontSize=16;fontColor=#000000;" parent="1" edge="1">
          <mxGeometry width="50" height="50" relative="1" as="geometry">
            <mxPoint x="150" y="4360" as="sourcePoint" />
            <mxPoint x="590" y="4359" as="targetPoint" />
            <Array as="points">
              <mxPoint x="150" y="4400" />
              <mxPoint x="590" y="4400" />
            </Array>
          </mxGeometry>
        </mxCell>
        <mxCell id="U3ueGLIZ5XUcP0PDT6xN-351" value="8.读msglist" style="edgeLabel;html=1;align=center;verticalAlign=middle;resizable=0;points=[];fontSize=16;fontColor=#000000;" parent="U3ueGLIZ5XUcP0PDT6xN-350" vertex="1" connectable="0">
          <mxGeometry x="-0.6332" y="3" relative="1" as="geometry">
            <mxPoint as="offset" />
          </mxGeometry>
        </mxCell>
        <mxCell id="U3ueGLIZ5XUcP0PDT6xN-353" value="&lt;font color=&quot;#ff3333&quot;&gt;无锡&lt;/font&gt;" style="text;html=1;strokeColor=none;fillColor=none;align=center;verticalAlign=middle;whiteSpace=wrap;rounded=0;fontSize=16;fontColor=#000000;" parent="1" vertex="1">
          <mxGeometry x="560" y="3871" width="60" height="30" as="geometry" />
        </mxCell>
        <mxCell id="U3ueGLIZ5XUcP0PDT6xN-355" value="深圳" style="text;html=1;strokeColor=none;fillColor=none;align=center;verticalAlign=middle;whiteSpace=wrap;rounded=0;fontSize=16;fontColor=#FF3333;" parent="1" vertex="1">
          <mxGeometry x="580" y="4160" width="60" height="30" as="geometry" />
        </mxCell>
        <mxCell id="U3ueGLIZ5XUcP0PDT6xN-358" value="" style="shape=flexArrow;endArrow=classic;html=1;rounded=0;fontSize=16;fontColor=#000000;entryX=0.5;entryY=1;entryDx=0;entryDy=0;entryPerimeter=0;" parent="1" target="U3ueGLIZ5XUcP0PDT6xN-300" edge="1">
          <mxGeometry width="50" height="50" relative="1" as="geometry">
            <mxPoint x="569" y="4280" as="sourcePoint" />
            <mxPoint x="600" y="4050" as="targetPoint" />
          </mxGeometry>
        </mxCell>
        <mxCell id="U3ueGLIZ5XUcP0PDT6xN-359" value="&lt;font color=&quot;#000000&quot;&gt;同步&lt;/font&gt;" style="edgeLabel;html=1;align=center;verticalAlign=middle;resizable=0;points=[];fontSize=16;fontColor=#FF3333;" parent="U3ueGLIZ5XUcP0PDT6xN-358" vertex="1" connectable="0">
          <mxGeometry x="0.545" y="-5" relative="1" as="geometry">
            <mxPoint as="offset" />
          </mxGeometry>
        </mxCell>
        <mxCell id="jrFRfUBAV2CwwS7NImxO-17" value="1.login" style="edgeStyle=orthogonalEdgeStyle;rounded=0;orthogonalLoop=1;jettySize=auto;html=1;exitX=0.25;exitY=1;exitDx=0;exitDy=0;entryX=0.25;entryY=0;entryDx=0;entryDy=0;" edge="1" parent="1" source="jrFRfUBAV2CwwS7NImxO-18" target="jrFRfUBAV2CwwS7NImxO-20">
          <mxGeometry relative="1" as="geometry" />
        </mxCell>
        <mxCell id="jrFRfUBAV2CwwS7NImxO-18" value="&lt;font style=&quot;font-size: 18px;&quot;&gt;&lt;b&gt;push_ap&lt;/b&gt;&lt;/font&gt;" style="rounded=1;whiteSpace=wrap;html=1;" vertex="1" parent="1">
          <mxGeometry x="-636" y="920" width="120" height="70" as="geometry" />
        </mxCell>
        <mxCell id="jrFRfUBAV2CwwS7NImxO-19" style="edgeStyle=orthogonalEdgeStyle;rounded=0;orthogonalLoop=1;jettySize=auto;html=1;exitX=0.25;exitY=1;exitDx=0;exitDy=0;entryX=0.25;entryY=0;entryDx=0;entryDy=0;" edge="1" parent="1" source="jrFRfUBAV2CwwS7NImxO-20" target="jrFRfUBAV2CwwS7NImxO-21">
          <mxGeometry relative="1" as="geometry" />
        </mxCell>
        <mxCell id="jrFRfUBAV2CwwS7NImxO-20" value="&lt;font style=&quot;font-size: 18px;&quot;&gt;&lt;b&gt;push_login&lt;/b&gt;&lt;/font&gt;" style="rounded=1;whiteSpace=wrap;html=1;" vertex="1" parent="1">
          <mxGeometry x="-636" y="1040" width="120" height="60" as="geometry" />
        </mxCell>
        <mxCell id="jrFRfUBAV2CwwS7NImxO-21" value="&lt;span style=&quot;text-align: left;&quot;&gt;&lt;b&gt;&lt;font style=&quot;font-size: 18px;&quot;&gt;im_pushbrcmgr&lt;/font&gt;&lt;/b&gt;&lt;/span&gt;" style="rounded=1;whiteSpace=wrap;html=1;" vertex="1" parent="1">
          <mxGeometry x="-636" y="1150" width="120" height="60" as="geometry" />
        </mxCell>
        <mxCell id="jrFRfUBAV2CwwS7NImxO-22" value="&lt;font style=&quot;font-size: 16px;&quot;&gt;notify&lt;/font&gt;" style="edgeStyle=orthogonalEdgeStyle;rounded=0;orthogonalLoop=1;jettySize=auto;html=1;" edge="1" parent="1">
          <mxGeometry relative="1" as="geometry">
            <mxPoint x="-636" y="960" as="targetPoint" />
            <Array as="points">
              <mxPoint x="-420" y="1223" />
              <mxPoint x="-420" y="1270" />
              <mxPoint x="-666" y="1270" />
              <mxPoint x="-666" y="960" />
            </Array>
            <mxPoint x="-420" y="1223" as="sourcePoint" />
          </mxGeometry>
        </mxCell>
        <mxCell id="jrFRfUBAV2CwwS7NImxO-23" value="&lt;span style=&quot;text-align: left;&quot;&gt;&lt;font style=&quot;font-size: 18px;&quot;&gt;&lt;b&gt;im_pushreader&lt;/b&gt;&lt;/font&gt;&lt;/span&gt;" style="rounded=1;whiteSpace=wrap;html=1;" vertex="1" parent="1">
          <mxGeometry x="-460" y="1160" width="120" height="60" as="geometry" />
        </mxCell>
        <mxCell id="jrFRfUBAV2CwwS7NImxO-24" value="&lt;b&gt;&lt;font style=&quot;font-size: 18px;&quot;&gt;transfrom&lt;/font&gt;&lt;/b&gt;" style="rounded=1;whiteSpace=wrap;html=1;" vertex="1" parent="1">
          <mxGeometry x="-480" y="925" width="120" height="60" as="geometry" />
        </mxCell>
        <mxCell id="jrFRfUBAV2CwwS7NImxO-25" value="&lt;font style=&quot;font-size: 18px;&quot;&gt;&lt;b&gt;grpcproxy&lt;/b&gt;&lt;/font&gt;" style="rounded=1;whiteSpace=wrap;html=1;" vertex="1" parent="1">
          <mxGeometry x="-460" y="830" width="120" height="60" as="geometry" />
        </mxCell>
        <mxCell id="jrFRfUBAV2CwwS7NImxO-26" value="&lt;h1&gt;当前逻辑&lt;/h1&gt;" style="text;html=1;strokeColor=none;fillColor=none;spacing=5;spacingTop=-20;whiteSpace=wrap;overflow=hidden;rounded=0;" vertex="1" parent="1">
          <mxGeometry x="-686" y="870" width="180" height="40" as="geometry" />
        </mxCell>
        <mxCell id="jrFRfUBAV2CwwS7NImxO-32" value="&lt;font style=&quot;font-size: 18px;&quot;&gt;&lt;b&gt;im_dispatcher&lt;/b&gt;&lt;/font&gt;" style="rounded=1;whiteSpace=wrap;html=1;" vertex="1" parent="1">
          <mxGeometry x="-460" y="1040" width="120" height="60" as="geometry" />
        </mxCell>
        <mxCell id="jrFRfUBAV2CwwS7NImxO-33" value="&lt;font style=&quot;font-size: 16px;&quot;&gt;4.res&lt;/font&gt;" style="endArrow=classic;html=1;rounded=0;entryX=0.75;entryY=1;entryDx=0;entryDy=0;" edge="1" parent="1">
          <mxGeometry width="50" height="50" relative="1" as="geometry">
            <mxPoint x="738" y="1026" as="sourcePoint" />
            <mxPoint x="738" y="970" as="targetPoint" />
          </mxGeometry>
        </mxCell>
        <mxCell id="jrFRfUBAV2CwwS7NImxO-40" value="&lt;font style=&quot;font-size: 18px;&quot;&gt;&lt;b&gt;im_dispatcher&lt;/b&gt;&lt;/font&gt;" style="rounded=1;whiteSpace=wrap;html=1;" vertex="1" parent="1">
          <mxGeometry x="-100" y="1040" width="120" height="60" as="geometry" />
        </mxCell>
        <mxCell id="jrFRfUBAV2CwwS7NImxO-42" value="" style="endArrow=classic;html=1;rounded=0;fontSize=16;" edge="1" parent="1">
          <mxGeometry width="50" height="50" relative="1" as="geometry">
            <mxPoint x="50" y="930" as="sourcePoint" />
            <mxPoint x="-20" y="1040" as="targetPoint" />
            <Array as="points">
              <mxPoint x="-21" y="930" />
            </Array>
          </mxGeometry>
        </mxCell>
        <mxCell id="jrFRfUBAV2CwwS7NImxO-43" value="5.fetch" style="edgeLabel;html=1;align=center;verticalAlign=middle;resizable=0;points=[];fontSize=16;fontColor=#FF3333;" vertex="1" connectable="0" parent="jrFRfUBAV2CwwS7NImxO-42">
          <mxGeometry x="0.2726" y="-1" relative="1" as="geometry">
            <mxPoint as="offset" />
          </mxGeometry>
        </mxCell>
        <mxCell id="jrFRfUBAV2CwwS7NImxO-44" value="" style="endArrow=classic;html=1;rounded=0;fontSize=16;exitX=0.583;exitY=1;exitDx=0;exitDy=0;exitPerimeter=0;entryX=0;entryY=0.75;entryDx=0;entryDy=0;" edge="1" parent="1" target="U3ueGLIZ5XUcP0PDT6xN-21">
          <mxGeometry width="50" height="50" relative="1" as="geometry">
            <mxPoint x="-18.039999999999964" y="1100" as="sourcePoint" />
            <mxPoint x="-30" y="1250" as="targetPoint" />
            <Array as="points">
              <mxPoint x="-18" y="1295" />
            </Array>
          </mxGeometry>
        </mxCell>
        <mxCell id="jrFRfUBAV2CwwS7NImxO-45" value="6.fetch" style="edgeLabel;html=1;align=center;verticalAlign=middle;resizable=0;points=[];fontSize=16;fontColor=#FF3333;" vertex="1" connectable="0" parent="jrFRfUBAV2CwwS7NImxO-44">
          <mxGeometry x="-0.3751" y="-1" relative="1" as="geometry">
            <mxPoint as="offset" />
          </mxGeometry>
        </mxCell>
        <mxCell id="jrFRfUBAV2CwwS7NImxO-46" value="" style="endArrow=classic;html=1;rounded=0;fontSize=16;" edge="1" parent="1">
          <mxGeometry width="50" height="50" relative="1" as="geometry">
            <mxPoint x="180" y="1270" as="sourcePoint" />
            <mxPoint x="180" y="940" as="targetPoint" />
            <Array as="points">
              <mxPoint x="210" y="1270" />
              <mxPoint x="210" y="940" />
            </Array>
          </mxGeometry>
        </mxCell>
        <mxCell id="jrFRfUBAV2CwwS7NImxO-47" value="7.res" style="edgeLabel;html=1;align=center;verticalAlign=middle;resizable=0;points=[];fontSize=16;" vertex="1" connectable="0" parent="jrFRfUBAV2CwwS7NImxO-46">
          <mxGeometry x="-0.5445" y="-3" relative="1" as="geometry">
            <mxPoint as="offset" />
          </mxGeometry>
        </mxCell>
      </root>
    </mxGraphModel>
  </diagram>
</mxfile>
